<svg width="40" height="40" viewBox="0 0 40 40" fill="none" xmlns="http://www.w3.org/2000/svg">
<g id="calendar-range">
<path id="Vector" d="M15 16.667H11.6667V20.0003H15V16.667ZM21.6667 16.667H18.3333V20.0003H21.6667V16.667ZM28.3333 16.667H25V20.0003H28.3333V16.667ZM31.6667 5.00033H30V1.66699H26.6667V5.00033H13.3333V1.66699H10V5.00033H8.33333C6.48333 5.00033 5 6.50033 5 8.33366V31.667C5 32.551 5.35119 33.3989 5.97631 34.024C6.60143 34.6491 7.44928 35.0003 8.33333 35.0003H31.6667C32.5507 35.0003 33.3986 34.6491 34.0237 34.024C34.6488 33.3989 35 32.551 35 31.667V8.33366C35 7.4496 34.6488 6.60176 34.0237 5.97664C33.3986 5.35151 32.5507 5.00033 31.6667 5.00033ZM31.6667 31.667H8.33333V13.3337H31.6667V31.667Z" fill="#6E71CC"/>
</g>
</svg>
