<svg xmlns="http://www.w3.org/2000/svg" width="83" height="23" viewBox="0 0 83 23" fill="none">
  <path d="M0.290039 7.45961C1.52615 7.45961 2.76401 7.45961 4.04033 7.45961C4.04033 8.25693 4.04033 9.03358 4.04033 9.91183C5.03691 7.86257 6.71536 7.11864 8.79594 7.16342C10.894 7.20819 12.4868 8.13466 13.4327 10.0048C13.7666 9.58464 14.0708 9.12657 14.4502 8.74255C15.4188 7.76097 16.6357 7.29257 18.0082 7.18064C18.9156 7.10659 19.809 7.18408 20.6745 7.47166C22.2743 8.00034 23.2586 9.13001 23.8233 10.6523C24.229 11.7458 24.3426 12.8876 24.3444 14.0431C24.3478 16.7329 24.3461 19.4228 24.3461 22.1127C24.3461 22.1798 24.3374 22.2487 24.3304 22.3434C23.1082 22.3434 21.8914 22.3434 20.6325 22.3434C20.6325 22.2091 20.6325 22.0765 20.6325 21.9439C20.6325 19.4469 20.6465 16.9516 20.622 14.4546C20.6168 13.8812 20.5486 13.2888 20.3877 12.7395C20.0573 11.615 19.281 10.8934 18.0781 10.7591C16.7161 10.6075 15.557 10.995 14.8069 12.2142C14.4397 12.8101 14.2579 13.4713 14.2509 14.1636C14.2247 16.7381 14.2142 19.3126 14.2002 21.8888C14.2002 22.0352 14.2002 22.1815 14.2002 22.3503C12.9414 22.3503 11.7105 22.3503 10.4394 22.3503C10.4394 22.2074 10.4394 22.0731 10.4394 21.9405C10.4377 19.273 10.4447 16.6055 10.4254 13.938C10.4184 13.077 10.1929 12.259 9.59321 11.6029C8.66307 10.5852 7.4864 10.5507 6.27477 10.9313C4.88655 11.367 4.27636 12.4329 4.11551 13.7882C4.05956 14.2618 4.05781 14.7439 4.05607 15.221C4.05082 17.4545 4.05432 19.6897 4.05432 21.9232C4.05432 22.0576 4.05432 22.1936 4.05432 22.3727C2.78324 22.3727 1.53664 22.3727 0.291787 22.3727C0.290039 17.3994 0.290039 12.4295 0.290039 7.45961Z" fill="#0A0103"/>
  <path d="M39.0413 9.22589C39.0413 8.71272 39.0413 8.10655 39.0413 7.47972C40.2984 7.47972 41.5205 7.47972 42.7706 7.47972C42.7706 12.4203 42.7706 17.3695 42.7706 22.3429C41.5502 22.3429 40.3211 22.3429 39.0605 22.3429C39.0605 21.7212 39.0605 21.0995 39.0605 20.4572C38.9976 20.4779 38.9574 20.4779 38.9416 20.4985C37.9468 21.8245 36.5359 22.4341 34.9413 22.6218C32.4971 22.9111 30.3693 22.193 28.6559 20.4279C27.4215 19.157 26.7956 17.6037 26.6173 15.8645C26.4267 14.0132 26.6924 12.2378 27.6838 10.6397C29.2276 8.15133 31.539 7.03715 34.478 7.17319C35.8365 7.23691 37.0814 7.64504 38.1584 8.48885C38.4713 8.73511 38.7703 8.99858 39.0413 9.22589ZM34.5934 10.6001C32.1894 10.6018 30.3675 12.4358 30.364 14.857C30.3606 17.2989 32.2138 19.2087 34.5969 19.2156C37.0429 19.2242 38.9836 17.2972 38.9801 14.8674C38.9749 12.4944 37.0254 10.5984 34.5934 10.6001Z" fill="#0A0103"/>
  <path d="M71.2221 9.2354C71.2221 8.7119 71.2221 8.10401 71.2221 7.4789C72.4792 7.4789 73.7014 7.4789 74.9497 7.4789C74.9497 12.4247 74.9497 17.3739 74.9497 22.3455C73.7241 22.3455 72.495 22.3455 71.2344 22.3455C71.2344 21.7187 71.2344 21.0987 71.2344 20.415C70.9407 20.7199 70.7116 21.0006 70.4406 21.2313C69.2098 22.2783 67.7359 22.6968 66.1466 22.6865C64.052 22.6727 62.2424 21.9236 60.8035 20.403C59.5621 19.0891 58.9362 17.5048 58.7806 15.7259C58.6163 13.8471 58.9205 12.0579 59.9695 10.4632C61.5238 8.10229 63.7863 7.04494 66.6221 7.17237C67.9929 7.23437 69.25 7.64077 70.3357 8.49319C70.6487 8.73945 70.9442 9.00293 71.2221 9.2354ZM66.7638 10.601C64.3615 10.6044 62.5397 12.4402 62.5379 14.8614C62.5362 17.3016 64.3929 19.2113 66.7743 19.2165C69.222 19.2217 71.161 17.2947 71.154 14.8648C71.1487 12.4918 69.1993 10.5976 66.7638 10.601Z" fill="#0A0103"/>
  <path d="M56.791 11.7853C55.6073 11.7853 54.4324 11.7853 53.261 11.7853C52.8798 10.251 51.2731 9.61035 49.939 10.4507C48.9617 11.0672 48.9844 12.2985 50.0317 12.7721C50.6838 13.0683 51.4077 13.2129 52.1053 13.4075C53.1805 13.7071 54.2803 13.9276 55.2541 14.5113C57.3714 15.7805 57.9624 18.4445 56.5305 20.4129C55.7629 21.4668 54.6579 22.0505 53.4113 22.3795C51.378 22.9167 49.4005 22.8048 47.5472 21.7492C46.0471 20.8933 45.1887 19.6087 45.054 17.8849C45.0505 17.8418 45.0593 17.797 45.0628 17.7351C46.2255 17.7351 47.3776 17.7351 48.5596 17.7351C48.6802 18.758 49.2991 19.359 50.294 19.5966C51.1052 19.7895 51.9042 19.7189 52.6578 19.3521C53.3012 19.0387 53.5827 18.5255 53.5197 17.8935C53.469 17.3889 53.1561 17.0703 52.7172 16.9119C52.0913 16.6863 51.4426 16.5193 50.7975 16.3488C49.7624 16.075 48.7239 15.8236 47.764 15.3207C45.4177 14.0912 45.0331 11.5563 45.8723 9.89794C46.465 8.72521 47.4563 7.97095 48.6907 7.56109C50.836 6.84988 52.934 6.97904 54.8852 8.16726C56.1703 8.9508 56.7682 10.1597 56.8172 11.6372C56.8207 11.682 56.805 11.725 56.791 11.7853Z" fill="#0A0103"/>
  <path d="M82.0007 7.49023C82.0007 12.4446 82.0007 17.3852 82.0007 22.3465C80.7576 22.3465 79.5285 22.3465 78.2766 22.3465C78.2766 17.3973 78.2766 12.4584 78.2766 7.49023C79.5022 7.49023 80.7313 7.49023 82.0007 7.49023Z" fill="#0A0103"/>
  <path d="M82.0009 7.49023H78.2786V17.5161L82.0009 12.9991V7.49023Z" fill="#ED0331"/>
  <path d="M80.1233 4.1364C81.283 4.1364 82.2231 3.21043 82.2231 2.0682C82.2231 0.925964 81.283 0 80.1233 0C78.9636 0 78.0234 0.925964 78.0234 2.0682C78.0234 3.21043 78.9636 4.1364 80.1233 4.1364Z" fill="#0A0103"/>
</svg>