<svg width="40" height="40" viewBox="0 0 40 40" fill="none" xmlns="http://www.w3.org/2000/svg">
<g id="400dp Icons">
<path id="Vector" d="M33.333 9.99967C34.2997 9.99967 35.083 10.333 35.6997 10.983C36.333 11.6663 36.6663 12.4163 36.6663 13.333V31.6663C36.6663 32.583 36.333 33.333 35.6997 34.0163C35.083 34.6663 34.2997 34.9997 33.333 34.9997H6.66634C5.69967 34.9997 4.91634 34.6663 4.29967 34.0163C3.66634 33.333 3.33301 32.583 3.33301 31.6663V13.333C3.33301 12.4163 3.66634 11.6663 4.29967 10.983C4.91634 10.333 5.69967 9.99967 6.66634 9.99967H13.333V6.66634C13.333 5.69967 13.6663 4.91634 14.2997 4.29967C14.9163 3.66634 15.6997 3.33301 16.6663 3.33301H23.333C24.2997 3.33301 25.083 3.66634 25.6997 4.29967C26.333 4.91634 26.6663 5.69967 26.6663 6.66634V9.99967H33.333ZM6.66634 13.333V31.6663H33.333V13.333H6.66634ZM23.333 9.99967V6.66634H16.6663V9.99967H23.333ZM17.433 29.1663L28.4163 18.183L26.0663 15.833L17.433 24.4497L13.9497 20.983L11.5997 23.333L17.433 29.1663Z" fill="#6E71CC"/>
</g>
</svg>
