<svg xmlns="http://www.w3.org/2000/svg" width="16" height="16" viewBox="0 0 16 16" fill="none">
  <g clip-path="url(#clip0_1994_1885)">
    <path d="M11.7667 4.23268C10.8 3.26602 9.47334 2.66602 8.00001 2.66602C5.05334 2.66602 2.67334 5.05268 2.67334 7.99935C2.67334 10.946 5.05334 13.3327 8.00001 13.3327C10.4867 13.3327 12.56 11.6327 13.1533 9.33268H11.7667C11.22 10.886 9.74001 11.9993 8.00001 11.9993C5.79334 11.9993 4.00001 10.206 4.00001 7.99935C4.00001 5.79268 5.79334 3.99935 8.00001 3.99935C9.10667 3.99935 10.0933 4.45935 10.8133 5.18602L8.66667 7.33268H13.3333V2.66602L11.7667 4.23268Z" fill="#CCCCCC"/>
  </g>
  <defs>
    <clipPath id="clip0_1994_1885">
      <rect width="16" height="16" fill="white"/>
    </clipPath>
  </defs>
</svg>