<svg width="58" height="63" viewBox="0 0 58 63" fill="none" xmlns="http://www.w3.org/2000/svg">
<g filter="url(#filter0_d_0_1)">
<path d="M17.2542 4.73758C20.4451 0.63338 25.9159 -0.949351 30.8053 0.817161L49.6317 7.61904C54.521 9.38555 57.7169 14.0995 57.5477 19.2955L56.8964 39.3023C56.7273 44.4982 53.2316 48.9944 48.2377 50.4391L29.0088 56.0021C24.0149 57.4469 18.6586 55.5117 15.7413 51.2087L4.50855 34.64C1.59129 30.3369 1.77659 24.6448 4.96755 20.5406L17.2542 4.73758Z" fill="white"/>
</g>
<path opacity="0.2" d="M39.625 19.25H20.375C20.1429 19.25 19.9204 19.3422 19.7563 19.5063C19.5922 19.6704 19.5 19.8929 19.5 20.125V32.375C19.5 32.6071 19.5922 32.8296 19.7563 32.9937C19.9204 33.1578 20.1429 33.25 20.375 33.25H39.625C39.8571 33.25 40.0796 33.1578 40.2437 32.9937C40.4078 32.8296 40.5 32.6071 40.5 32.375V20.125C40.5 19.8929 40.4078 19.6704 40.2437 19.5063C40.0796 19.3422 39.8571 19.25 39.625 19.25ZM28.25 29.75V22.75L33.5 26.25L28.25 29.75Z" fill="#6E71CC"/>
<path d="M33.9856 25.5216L28.7356 22.0216C28.6038 21.9336 28.4506 21.8831 28.2923 21.8755C28.1341 21.8678 27.9767 21.9032 27.837 21.978C27.6973 22.0528 27.5806 22.1641 27.4992 22.3001C27.4178 22.436 27.3749 22.5916 27.375 22.75V29.75C27.3749 29.9084 27.4178 30.064 27.4992 30.1999C27.5806 30.3359 27.6973 30.4472 27.837 30.522C27.9767 30.5968 28.1341 30.6322 28.2923 30.6245C28.4506 30.6169 28.6038 30.5664 28.7356 30.4784L33.9856 26.9784C34.1056 26.8986 34.2041 26.7903 34.2721 26.6632C34.3402 26.5361 34.3759 26.3942 34.3759 26.25C34.3759 26.1058 34.3402 25.9639 34.2721 25.8368C34.2041 25.7097 34.1056 25.6014 33.9856 25.5216ZM29.125 28.1148V24.3906L31.9228 26.25L29.125 28.1148ZM39.625 18.375H20.375C19.9109 18.375 19.4658 18.5594 19.1376 18.8876C18.8094 19.2158 18.625 19.6609 18.625 20.125V32.375C18.625 32.8391 18.8094 33.2842 19.1376 33.6124C19.4658 33.9406 19.9109 34.125 20.375 34.125H39.625C40.0891 34.125 40.5342 33.9406 40.8624 33.6124C41.1906 33.2842 41.375 32.8391 41.375 32.375V20.125C41.375 19.6609 41.1906 19.2158 40.8624 18.8876C40.5342 18.5594 40.0891 18.375 39.625 18.375ZM39.625 32.375H20.375V20.125H39.625V32.375ZM41.375 36.75C41.375 36.9821 41.2828 37.2046 41.1187 37.3687C40.9546 37.5328 40.7321 37.625 40.5 37.625H19.5C19.2679 37.625 19.0454 37.5328 18.8813 37.3687C18.7172 37.2046 18.625 36.9821 18.625 36.75C18.625 36.5179 18.7172 36.2954 18.8813 36.1313C19.0454 35.9672 19.2679 35.875 19.5 35.875H40.5C40.7321 35.875 40.9546 35.9672 41.1187 36.1313C41.2828 36.2954 41.375 36.5179 41.375 36.75Z" fill="#6E71CC"/>
<defs>
<filter id="filter0_d_0_1" x="0.441097" y="0.102392" width="57.113" height="62.3733" filterUnits="userSpaceOnUse" color-interpolation-filters="sRGB">
<feFlood flood-opacity="0" result="BackgroundImageFix"/>
<feColorMatrix in="SourceAlpha" type="matrix" values="0 0 0 0 0 0 0 0 0 0 0 0 0 0 0 0 0 0 127 0" result="hardAlpha"/>
<feOffset dx="-2" dy="6"/>
<feColorMatrix type="matrix" values="0 0 0 0 0 0 0 0 0 0 0 0 0 0 0 0 0 0 0.1 0"/>
<feBlend mode="normal" in2="BackgroundImageFix" result="effect1_dropShadow_0_1"/>
<feBlend mode="normal" in="SourceGraphic" in2="effect1_dropShadow_0_1" result="shape"/>
</filter>
</defs>
</svg>
