<svg width="40" height="40" viewBox="0 0 40 40" fill="none" xmlns="http://www.w3.org/2000/svg">
<g id="400dp Icons">
<path id="Vector" d="M27.6049 21.2667C30.8549 22.3667 33.6715 24.1667 33.6715 26.6667V35H7.00488V26.6667C7.00488 24.1667 9.82155 22.3667 13.0882 21.2667L14.1216 23.3333L14.5049 24.1667C12.0049 24.9333 10.1715 26.0333 10.1715 26.6667V31.8333H17.2049L18.6715 23.3833L17.1049 20.25C18.1382 20.1333 19.2215 20.05 20.3382 20.05C21.4549 20.05 22.5382 20.1333 23.5715 20.25L22.0049 23.3833L23.4715 31.8333H30.5049V26.6667C30.5049 26.0333 28.6715 24.9333 26.1715 24.1667L26.5549 23.3333L27.6049 21.2667ZM20.3382 8.33333C18.5049 8.33333 17.0049 9.83333 17.0049 11.6667C17.0049 13.5 18.5049 15 20.3382 15C22.1715 15 23.6715 13.5 23.6715 11.6667C23.6715 9.83333 22.1715 8.33333 20.3382 8.33333ZM20.3382 18.3333C16.6549 18.3333 13.6715 15.35 13.6715 11.6667C13.6715 7.98333 16.6549 5 20.3382 5C24.0215 5 27.0049 7.98333 27.0049 11.6667C27.0049 15.35 24.0215 18.3333 20.3382 18.3333Z" fill="#6E71CC"/>
</g>
</svg>
