<svg width="38" height="40" viewBox="0 0 38 40" fill="none" xmlns="http://www.w3.org/2000/svg">
<g id="Confetti">
<path id="Vector" opacity="0.2" d="M8.63442 23.6154L14.8241 30.0527L7.40147 32.8582C7.19683 32.9364 6.97492 32.9521 6.76196 32.9034C6.54901 32.8547 6.35392 32.7436 6.19974 32.5833C6.04556 32.4229 5.93873 32.22 5.8919 31.9985C5.84506 31.7771 5.86016 31.5463 5.93542 31.3335L8.63442 23.6154ZM28.9862 22.8958L15.5161 8.88686C15.3802 8.74561 15.2123 8.64228 15.0279 8.58643C14.8435 8.53057 14.6485 8.524 14.461 8.56732C14.2734 8.61065 14.0995 8.70246 13.9551 8.83427C13.8108 8.96608 13.7007 9.13362 13.6351 9.3214L11.4507 15.5727L22.5663 27.1329L28.5772 24.8611C28.7587 24.7926 28.9206 24.6772 29.0477 24.5259C29.1747 24.3746 29.2628 24.1923 29.3036 23.9959C29.3445 23.7996 29.3368 23.5957 29.2813 23.4033C29.2258 23.2109 29.1243 23.0363 28.9862 22.8958Z" fill="#6FCD9E"/>
<path id="Vector_2" d="M16.345 8.02543C16.0695 7.7397 15.7293 7.53073 15.3557 7.4178C14.9821 7.30488 14.5872 7.29163 14.2074 7.37929C13.8276 7.46696 13.4751 7.6527 13.1825 7.91938C12.8899 8.18606 12.6666 8.52509 12.5332 8.90518L4.83792 30.9188C4.7115 31.2818 4.67067 31.671 4.71884 32.0539C4.76702 32.4367 4.9028 32.8019 5.11478 33.1189C5.32677 33.4358 5.60877 33.6953 5.93712 33.8754C6.26547 34.0555 6.63059 34.1511 7.00181 34.1542C7.27514 34.1522 7.54604 34.1006 7.80228 34.0017L28.9677 25.997C29.3333 25.8585 29.6594 25.6264 29.916 25.3222C30.1726 25.018 30.3514 24.6514 30.4358 24.2564C30.5202 23.8614 30.5076 23.4506 30.3992 23.062C30.2907 22.6733 30.0898 22.3194 29.8151 22.0328L16.345 8.02543ZM15.1238 28.6409L9.99257 23.3044L11.9219 17.7835L20.4323 26.6344L15.1238 28.6409ZM7.06046 31.6903L9.11293 25.8339L12.6974 29.5618L7.06046 31.6903ZM22.8704 25.7134L12.8074 15.2479L14.7133 9.77883L28.1174 23.7191L22.8704 25.7134ZM23.4568 10.9788C23.4788 10.1542 23.6708 9.34409 24.0198 8.60329C24.7968 6.98863 26.2628 6.09974 28.1482 6.09974C29.1305 6.09974 29.7609 5.75058 30.1494 5.00043C30.3539 4.58075 30.4713 4.12101 30.4939 3.65107C30.4951 3.32757 30.6197 3.0178 30.8405 2.78991C31.0613 2.56202 31.3601 2.43467 31.6711 2.43589C31.9822 2.4371 32.28 2.56677 32.4992 2.79638C32.7183 3.02599 32.8407 3.33672 32.8396 3.66022C32.8396 5.62098 31.5905 8.53925 28.1482 8.53925C27.1659 8.53925 26.5355 8.88841 26.147 9.63856C25.9425 10.0582 25.8251 10.518 25.8025 10.9879C25.8019 11.1481 25.771 11.3066 25.7115 11.4543C25.6521 11.6021 25.5652 11.7362 25.4559 11.8491C25.3466 11.9619 25.2169 12.0513 25.0744 12.112C24.9319 12.1727 24.7793 12.2037 24.6253 12.2031C24.4712 12.2025 24.3188 12.1704 24.1768 12.1085C24.0347 12.0466 23.9057 11.9563 23.7972 11.8426C23.6887 11.7289 23.6028 11.5941 23.5444 11.4459C23.486 11.2977 23.4562 11.1389 23.4568 10.9788ZM19.9383 6.09974V2.44046C19.9383 2.11696 20.0619 1.80671 20.2818 1.57796C20.5018 1.34921 20.8001 1.2207 21.1111 1.2207C21.4222 1.2207 21.7205 1.34921 21.9405 1.57796C22.1604 1.80671 22.284 2.11696 22.284 2.44046V6.09974C22.284 6.42324 22.1604 6.73349 21.9405 6.96223C21.7205 7.19098 21.4222 7.31949 21.1111 7.31949C20.8001 7.31949 20.5018 7.19098 20.2818 6.96223C20.0619 6.73349 19.9383 6.42324 19.9383 6.09974ZM34.8422 18.6541C34.9511 18.7674 35.0374 18.9019 35.0963 19.05C35.1552 19.198 35.1855 19.3567 35.1854 19.5168C35.1853 19.677 35.1549 19.8357 35.0959 19.9836C35.0369 20.1316 34.9504 20.2661 34.8415 20.3793C34.7325 20.4925 34.6032 20.5823 34.4608 20.6436C34.3185 20.7048 34.1659 20.7363 34.0119 20.7362C33.8579 20.7361 33.7053 20.7045 33.5631 20.6431C33.4208 20.5818 33.2915 20.4919 33.1826 20.3785L30.8369 17.939C30.6169 17.7101 30.4932 17.3997 30.4932 17.076C30.4932 16.7524 30.6169 16.4419 30.8369 16.2131C31.057 15.9842 31.3555 15.8556 31.6667 15.8556C31.978 15.8556 32.2764 15.9842 32.4965 16.2131L34.8422 18.6541ZM35.5562 12.136L32.0376 13.3558C31.7425 13.4581 31.4204 13.4343 31.1422 13.2896C30.8639 13.1449 30.6524 12.8912 30.554 12.5843C30.4556 12.2774 30.4785 11.9424 30.6176 11.653C30.7568 11.3636 31.0007 11.1436 31.2958 11.0413L34.8144 9.82152C35.1095 9.71922 35.4316 9.74302 35.7098 9.88771C35.988 10.0324 36.1996 10.2861 36.298 10.593C36.3964 10.8999 36.3735 11.2349 36.2344 11.5243C36.0952 11.8137 35.8513 12.0337 35.5562 12.136Z" fill="#6FCD9E"/>
</g>
</svg>
