<svg width="877" height="172" viewBox="0 0 877 172" fill="none" xmlns="http://www.w3.org/2000/svg">
<rect width="877" height="172" fill="#E5E5E5"/>
<g clip-path="url(#clip0_3_3536)">
<rect width="1440" height="762" transform="translate(-282 -164)" fill="#F2F7FF"/>
<rect width="919" height="670" transform="translate(-21 -72)" fill="#F2F7FF"/>
<g filter="url(#filter0_dd_3_3536)">
<g clip-path="url(#clip1_3_3536)">
<rect x="3" y="2" width="871" height="166" rx="12" fill="#FFF9E5"/>
<path d="M122.723 117.766C90.4111 170.781 28.111 173.409 1 168.096V2H868C849.004 27.4482 799.06 74.1503 751.257 57.3735C649 21.4865 583.96 50.9797 506.5 105.5C429.04 160.02 303.829 87.8495 301.988 86.7285C250.982 55.6667 163.113 51.4971 122.723 117.766Z" fill="#FFDB66"/>
<text fill="#0A0103" xml:space="preserve" style="white-space: pre" font-family="Poppins" font-size="16" font-weight="bold" letter-spacing="0em"><tspan x="27" y="41.6">200 students have already benefitted from the referral program!</tspan></text>
<text fill="#6E71CC" xml:space="preserve" style="white-space: pre" font-family="Poppins" font-size="24" font-weight="bold" letter-spacing="0em"><tspan x="27" y="79.4">Start referring now.</tspan></text>
<path d="M731.722 113.113H703.871C702.565 113.113 701.506 114.172 701.506 115.478V126.611C701.506 127.917 702.565 128.976 703.871 128.976H731.722C733.028 128.976 734.087 127.917 734.087 126.611V115.478C734.087 114.172 733.028 113.113 731.722 113.113Z" fill="#406052"/>
<path d="M730.954 126.623L730.949 115.49C730.948 114.184 729.888 113.126 728.582 113.126L700.731 113.141C699.425 113.142 698.367 114.201 698.368 115.507L698.373 126.64C698.374 127.946 699.434 129.004 700.74 129.004L728.59 128.989C729.897 128.988 730.955 127.929 730.954 126.623Z" fill="#BDEFDC"/>
<path d="M728.534 113.906H700.683C699.812 113.906 699.106 114.612 699.106 115.483V126.61C699.106 127.481 699.812 128.187 700.683 128.187H728.534C729.405 128.187 730.111 127.481 730.111 126.61V115.483C730.111 114.612 729.405 113.906 728.534 113.906Z" fill="#8ED2BB"/>
<path d="M728.529 113.9H714.606L714.612 128.186H728.535C729.407 128.18 730.111 127.476 730.111 126.604V115.471C730.111 114.599 729.401 113.895 728.529 113.895V113.9Z" fill="#64A08A"/>
<path d="M721.199 121.04C721.199 124.68 718.252 127.633 714.607 127.638C710.967 127.638 708.014 124.692 708.009 121.046C708.009 117.406 710.955 114.454 714.601 114.448C718.241 114.448 721.193 117.395 721.199 121.04Z" fill="#BDEFDC"/>
<path d="M703.754 113.912H700.678C699.806 113.912 699.102 114.622 699.102 115.489V118.581C701.651 118.525 703.709 116.462 703.754 113.912Z" fill="#406052"/>
<path d="M699.096 123.545V126.62C699.096 127.492 699.806 128.197 700.672 128.197H703.764C703.709 125.647 701.645 123.59 699.096 123.545Z" fill="#406052"/>
<path d="M725.459 128.181H728.534C729.406 128.181 730.111 127.471 730.111 126.605V123.513C727.561 123.569 725.504 125.632 725.459 128.181Z" fill="#406052"/>
<path d="M730.117 118.547V115.471C730.117 114.599 729.407 113.895 728.54 113.895H725.448C725.504 116.444 727.567 118.502 730.117 118.547Z" fill="#406052"/>
<path d="M595.901 146.286H568.051C566.744 146.286 565.686 147.345 565.686 148.651V159.784C565.686 161.09 566.744 162.149 568.051 162.149H595.901C597.208 162.149 598.266 161.09 598.266 159.784V148.651C598.266 147.345 597.208 146.286 595.901 146.286Z" fill="#406052"/>
<path d="M595.124 159.797L595.118 148.665C595.118 147.359 594.058 146.3 592.752 146.301L564.901 146.316C563.595 146.316 562.537 147.376 562.538 148.682L562.543 159.814C562.544 161.121 563.604 162.179 564.91 162.178L592.76 162.164C594.067 162.163 595.125 161.104 595.124 159.797Z" fill="#BDEFDC"/>
<path d="M592.714 147.079H564.863C563.992 147.079 563.286 147.785 563.286 148.656V159.783C563.286 160.654 563.992 161.359 564.863 161.359H592.714C593.584 161.359 594.29 160.654 594.29 159.783V148.656C594.29 147.785 593.584 147.079 592.714 147.079Z" fill="#8ED2BB"/>
<path d="M592.708 147.07H578.785L578.791 161.356H592.713C593.585 161.35 594.29 160.646 594.29 159.774V148.641C594.29 147.769 593.58 147.064 592.708 147.064V147.07Z" fill="#64A08A"/>
<path d="M585.383 154.215C585.383 157.855 582.437 160.807 578.791 160.813C575.151 160.813 572.199 157.866 572.193 154.221C572.193 150.581 575.14 147.629 578.786 147.623C582.426 147.623 585.378 150.57 585.383 154.215Z" fill="#BDEFDC"/>
<path d="M567.933 147.079H564.858C563.986 147.079 563.281 147.789 563.281 148.656V151.748C565.831 151.692 567.889 149.629 567.933 147.079Z" fill="#406052"/>
<path d="M563.281 156.714V159.789C563.281 160.661 563.991 161.366 564.858 161.366H567.95C567.894 158.816 565.831 156.759 563.281 156.714Z" fill="#406052"/>
<path d="M589.645 161.356H592.72C593.592 161.356 594.297 160.646 594.297 159.78V156.688C591.747 156.743 589.689 158.807 589.645 161.356Z" fill="#406052"/>
<path d="M594.296 151.72V148.645C594.296 147.773 593.586 147.068 592.719 147.068H589.627C589.683 149.618 591.746 151.676 594.296 151.72Z" fill="#406052"/>
<path d="M662.327 113.113H634.476C633.17 113.113 632.111 114.172 632.111 115.478V126.611C632.111 127.917 633.17 128.976 634.476 128.976H662.327C663.633 128.976 664.692 127.917 664.692 126.611V115.478C664.692 114.172 663.633 113.113 662.327 113.113Z" fill="#406052"/>
<path d="M661.557 126.625L661.551 115.492C661.55 114.186 660.491 113.128 659.185 113.128L631.334 113.143C630.028 113.143 628.969 114.203 628.97 115.509L628.976 126.642C628.977 127.948 630.036 129.006 631.342 129.005L659.193 128.991C660.499 128.99 661.558 127.931 661.557 126.625Z" fill="#BDEFDC"/>
<path d="M659.139 113.907H631.289C630.418 113.907 629.712 114.613 629.712 115.484V126.611C629.712 127.482 630.418 128.188 631.289 128.188H659.139C660.01 128.188 660.716 127.482 660.716 126.611V115.484C660.716 114.613 660.01 113.907 659.139 113.907Z" fill="#8ED2BB"/>
<path d="M659.133 113.902H645.211L645.217 128.188H659.139C660.011 128.182 660.716 127.478 660.716 126.606V115.473C660.716 114.601 660.006 113.896 659.133 113.896V113.902Z" fill="#64A08A"/>
<path d="M649.881 125.71C652.455 123.136 652.455 118.962 649.881 116.387C647.306 113.813 643.132 113.813 640.558 116.387C637.983 118.962 637.983 123.136 640.558 125.71C643.132 128.285 647.306 128.285 649.881 125.71Z" fill="#BDEFDC"/>
<path d="M648.388 117.145C648.388 116.91 648.198 116.72 647.963 116.72H642.455C642.22 116.72 642.03 116.91 642.03 117.145C642.03 117.38 642.22 117.57 642.455 117.57H643.948C644.798 117.57 645.525 118.062 645.81 118.761H642.455C642.22 118.761 642.03 118.951 642.03 119.186C642.03 119.42 642.22 119.61 642.455 119.61H645.922C645.816 120.527 644.971 121.243 643.948 121.243H642.455C642.22 121.243 642.03 121.433 642.03 121.668C642.03 121.903 642.22 122.093 642.455 122.093H643.367L646.118 125.783C646.213 125.912 646.364 125.985 646.526 125.985C646.939 125.985 647.18 125.509 646.928 125.179L644.625 122.093H647.957C648.192 122.093 648.382 121.903 648.382 121.668C648.382 121.433 648.192 121.243 647.957 121.243H646.475C646.861 120.785 647.107 120.226 647.152 119.61H647.952C648.186 119.61 648.376 119.42 648.376 119.186C648.376 118.951 648.186 118.761 647.952 118.761H647.079C646.973 118.319 646.761 117.916 646.47 117.57H647.952C648.186 117.57 648.376 117.38 648.376 117.145H648.388Z" fill="#406052"/>
<path d="M634.359 113.913H631.284C630.412 113.913 629.707 114.623 629.707 115.49V118.582C632.257 118.526 634.314 116.463 634.359 113.913Z" fill="#406052"/>
<path d="M629.707 123.547V126.622C629.707 127.494 630.417 128.199 631.284 128.199H634.376C634.32 125.649 632.257 123.592 629.707 123.547Z" fill="#406052"/>
<path d="M656.069 128.181H659.145C660.017 128.181 660.721 127.471 660.721 126.605V123.513C658.172 123.569 656.114 125.632 656.069 128.181Z" fill="#406052"/>
<path d="M660.722 118.549V115.473C660.722 114.601 660.011 113.896 659.145 113.896H656.053C656.109 116.446 658.172 118.504 660.722 118.549Z" fill="#406052"/>
<path d="M866.45 168.027H549.56C545.405 168.027 542 166.595 542 164.839C542 163.089 545.4 161.652 549.56 161.652H866.45C870.605 161.652 874.01 163.084 874.01 164.839C874.01 166.59 870.61 168.027 866.45 168.027Z" fill="#747DBA"/>
<path d="M744.799 158.408H726.671C726.035 158.408 725.52 158.924 725.52 159.56V163.161C725.52 163.797 726.035 164.313 726.671 164.313H744.799C745.435 164.313 745.95 163.797 745.95 163.161V159.56C745.95 158.924 745.435 158.408 744.799 158.408Z" fill="#996B20"/>
<path d="M739.885 158.408H721.757C721.121 158.408 720.605 158.924 720.605 159.56V163.161C720.605 163.797 721.121 164.313 721.757 164.313H739.885C740.521 164.313 741.036 163.797 741.036 163.161V159.56C741.036 158.924 740.521 158.408 739.885 158.408Z" fill="#DBA32C"/>
<path d="M730.049 164.313V158.408H721.751C721.114 158.408 720.6 158.923 720.6 159.56V163.161C720.6 163.798 721.114 164.313 721.751 164.313H730.049Z" fill="#EDCB3A"/>
<path d="M733.286 158.408H731.189V164.313H733.286V158.408Z" fill="#EDCB3A"/>
<path d="M735.495 158.408H734.388V164.313H735.495V158.408Z" fill="#EDCB3A"/>
<path d="M743.083 152.53H724.956C724.319 152.53 723.804 153.046 723.804 153.682V157.283C723.804 157.919 724.319 158.435 724.956 158.435H743.083C743.719 158.435 744.235 157.919 744.235 157.283V153.682C744.235 153.046 743.719 152.53 743.083 152.53Z" fill="#996B20"/>
<path d="M738.168 152.53H720.041C719.404 152.53 718.889 153.046 718.889 153.682V157.283C718.889 157.919 719.404 158.435 720.041 158.435H738.168C738.804 158.435 739.32 157.919 739.32 157.283V153.682C739.32 153.046 738.804 152.53 738.168 152.53Z" fill="#DBA32C"/>
<path d="M728.338 158.435V152.53H720.041C719.403 152.53 718.889 153.045 718.889 153.682V157.283C718.889 157.92 719.403 158.435 720.041 158.435H728.338Z" fill="#EDCB3A"/>
<path d="M731.57 152.53H729.474V158.435H731.57V152.53Z" fill="#EDCB3A"/>
<path d="M733.784 152.53H732.677V158.435H733.784V152.53Z" fill="#EDCB3A"/>
<path d="M746.925 146.655H728.797C728.161 146.655 727.646 147.171 727.646 147.807V151.408C727.646 152.044 728.161 152.56 728.797 152.56H746.925C747.561 152.56 748.076 152.044 748.076 151.408V147.807C748.076 147.171 747.561 146.655 746.925 146.655Z" fill="#996B20"/>
<path d="M742.01 146.655H723.882C723.246 146.655 722.73 147.171 722.73 147.807V151.408C722.73 152.044 723.246 152.56 723.882 152.56H742.01C742.646 152.56 743.161 152.044 743.161 151.408V147.807C743.161 147.171 742.646 146.655 742.01 146.655Z" fill="#DBA32C"/>
<path d="M732.174 152.56V146.655H723.876C723.239 146.655 722.725 147.17 722.725 147.807V151.408C722.725 152.045 723.239 152.56 723.876 152.56H732.174Z" fill="#EDCB3A"/>
<path d="M735.411 146.655H733.314V152.56H735.411V146.655Z" fill="#EDCB3A"/>
<path d="M737.626 146.655H736.519V152.56H737.626V146.655Z" fill="#EDCB3A"/>
<path d="M743.676 140.779H725.548C724.912 140.779 724.396 141.295 724.396 141.931V145.532C724.396 146.168 724.912 146.684 725.548 146.684H743.676C744.312 146.684 744.827 146.168 744.827 145.532V141.931C744.827 141.295 744.312 140.779 743.676 140.779Z" fill="#996B20"/>
<path d="M738.76 140.779H720.633C719.997 140.779 719.481 141.295 719.481 141.931V145.532C719.481 146.168 719.997 146.684 720.633 146.684H738.76C739.397 146.684 739.912 146.168 739.912 145.532V141.931C739.912 141.295 739.397 140.779 738.76 140.779Z" fill="#DBA32C"/>
<path d="M728.931 146.684V140.779H720.633C719.996 140.779 719.481 141.294 719.481 141.931V145.532C719.481 146.169 719.996 146.684 720.633 146.684H728.931Z" fill="#EDCB3A"/>
<path d="M732.162 140.779H730.065V146.684H732.162V140.779Z" fill="#EDCB3A"/>
<path d="M734.377 140.779H733.27V146.684H734.377V140.779Z" fill="#EDCB3A"/>
<path d="M748.132 134.908H730.004C729.368 134.908 728.853 135.424 728.853 136.06V139.661C728.853 140.297 729.368 140.813 730.004 140.813H748.132C748.768 140.813 749.283 140.297 749.283 139.661V136.06C749.283 135.424 748.768 134.908 748.132 134.908Z" fill="#996B20"/>
<path d="M743.217 134.908H725.089C724.453 134.908 723.938 135.424 723.938 136.06V139.661C723.938 140.297 724.453 140.813 725.089 140.813H743.217C743.853 140.813 744.368 140.297 744.368 139.661V136.06C744.368 135.424 743.853 134.908 743.217 134.908Z" fill="#DBA32C"/>
<path d="M733.387 140.813V134.908H725.089C724.452 134.908 723.938 135.423 723.938 136.06V139.661C723.938 140.298 724.452 140.813 725.089 140.813H733.387Z" fill="#EDCB3A"/>
<path d="M736.618 134.908H734.521V140.813H736.618V134.908Z" fill="#EDCB3A"/>
<path d="M738.833 134.908H737.726V140.813H738.833V134.908Z" fill="#EDCB3A"/>
<path d="M743.883 129.03H725.755C725.119 129.03 724.604 129.546 724.604 130.182V133.783C724.604 134.419 725.119 134.935 725.755 134.935H743.883C744.519 134.935 745.034 134.419 745.034 133.783V130.182C745.034 129.546 744.519 129.03 743.883 129.03Z" fill="#996B20"/>
<path d="M738.968 129.03H720.84C720.204 129.03 719.688 129.546 719.688 130.182V133.783C719.688 134.419 720.204 134.935 720.84 134.935H738.968C739.604 134.935 740.119 134.419 740.119 133.783V130.182C740.119 129.546 739.604 129.03 738.968 129.03Z" fill="#DBA32C"/>
<path d="M729.138 134.935V129.03H720.84C720.203 129.03 719.688 129.545 719.688 130.182V133.783C719.688 134.42 720.203 134.935 720.84 134.935H729.138Z" fill="#EDCB3A"/>
<path d="M732.369 129.03H730.272V134.935H732.369V129.03Z" fill="#EDCB3A"/>
<path d="M734.584 129.03H733.477V134.935H734.584V129.03Z" fill="#EDCB3A"/>
<path d="M624.294 158.376H606.166C605.53 158.376 605.015 158.892 605.015 159.528V163.129C605.015 163.765 605.53 164.28 606.166 164.28H624.294C624.93 164.28 625.446 163.765 625.446 163.129V159.528C625.446 158.892 624.93 158.376 624.294 158.376Z" fill="#996B20"/>
<path d="M619.373 158.376H601.246C600.609 158.376 600.094 158.892 600.094 159.528V163.129C600.094 163.765 600.609 164.28 601.246 164.28H619.373C620.009 164.28 620.525 163.765 620.525 163.129V159.528C620.525 158.892 620.009 158.376 619.373 158.376Z" fill="#DBA32C"/>
<path d="M609.543 164.28V158.376H601.246C600.608 158.376 600.094 158.89 600.094 159.528V163.129C600.094 163.766 600.608 164.28 601.246 164.28H609.543Z" fill="#EDCB3A"/>
<path d="M612.774 158.376H610.678V164.28H612.774V158.376Z" fill="#EDCB3A"/>
<path d="M614.989 158.376H613.882V164.28H614.989V158.376Z" fill="#EDCB3A"/>
<path d="M622.577 152.506H604.45C603.814 152.506 603.298 153.022 603.298 153.658V157.259C603.298 157.895 603.814 158.41 604.45 158.41H622.577C623.213 158.41 623.729 157.895 623.729 157.259V153.658C623.729 153.022 623.213 152.506 622.577 152.506Z" fill="#996B20"/>
<path d="M617.662 152.506H599.535C598.898 152.506 598.383 153.022 598.383 153.658V157.259C598.383 157.895 598.898 158.41 599.535 158.41H617.662C618.298 158.41 618.814 157.895 618.814 157.259V153.658C618.814 153.022 618.298 152.506 617.662 152.506Z" fill="#DBA32C"/>
<path d="M607.832 158.41V152.506H599.535C598.897 152.506 598.383 153.02 598.383 153.658V157.259C598.383 157.896 598.897 158.41 599.535 158.41H607.832Z" fill="#EDCB3A"/>
<path d="M611.064 152.506H608.967V158.41H611.064V152.506Z" fill="#EDCB3A"/>
<path d="M613.278 152.506H612.171V158.41H613.278V152.506Z" fill="#EDCB3A"/>
<path d="M626.419 146.627H608.292C607.655 146.627 607.14 147.143 607.14 147.779V151.38C607.14 152.016 607.655 152.531 608.292 152.531H626.419C627.055 152.531 627.571 152.016 627.571 151.38V147.779C627.571 147.143 627.055 146.627 626.419 146.627Z" fill="#996B20"/>
<path d="M621.504 146.627H603.376C602.74 146.627 602.225 147.143 602.225 147.779V151.38C602.225 152.016 602.74 152.531 603.376 152.531H621.504C622.14 152.531 622.655 152.016 622.655 151.38V147.779C622.655 147.143 622.14 146.627 621.504 146.627Z" fill="#DBA32C"/>
<path d="M611.668 152.531V146.627H603.371C602.733 146.627 602.219 147.141 602.219 147.779V151.38C602.219 152.017 602.733 152.531 603.371 152.531H611.668Z" fill="#EDCB3A"/>
<path d="M614.905 146.627H612.809V152.531H614.905V146.627Z" fill="#EDCB3A"/>
<path d="M617.114 146.627H616.007V152.531H617.114V146.627Z" fill="#EDCB3A"/>
<path d="M623.17 140.752H605.042C604.406 140.752 603.891 141.268 603.891 141.904V145.505C603.891 146.141 604.406 146.656 605.042 146.656H623.17C623.806 146.656 624.322 146.141 624.322 145.505V141.904C624.322 141.268 623.806 140.752 623.17 140.752Z" fill="#996B20"/>
<path d="M618.255 140.752H600.127C599.491 140.752 598.976 141.268 598.976 141.904V145.505C598.976 146.141 599.491 146.656 600.127 146.656H618.255C618.891 146.656 619.406 146.141 619.406 145.505V141.904C619.406 141.268 618.891 140.752 618.255 140.752Z" fill="#DBA32C"/>
<path d="M608.419 146.656V140.752H600.122C599.484 140.752 598.97 141.266 598.97 141.904V145.505C598.97 146.142 599.484 146.656 600.122 146.656H608.419Z" fill="#EDCB3A"/>
<path d="M611.656 140.752H609.56V146.656H611.656V140.752Z" fill="#EDCB3A"/>
<path d="M613.871 140.752H612.764V146.656H613.871V140.752Z" fill="#EDCB3A"/>
<path d="M627.626 134.874H609.499C608.862 134.874 608.347 135.39 608.347 136.026V139.627C608.347 140.263 608.862 140.779 609.499 140.779H627.626C628.262 140.779 628.778 140.263 628.778 139.627V136.026C628.778 135.39 628.262 134.874 627.626 134.874Z" fill="#996B20"/>
<path d="M622.711 134.874H604.583C603.947 134.874 603.432 135.39 603.432 136.026V139.627C603.432 140.263 603.947 140.779 604.583 140.779H622.711C623.347 140.779 623.862 140.263 623.862 139.627V136.026C623.862 135.39 623.347 134.874 622.711 134.874Z" fill="#DBA32C"/>
<path d="M612.881 140.779V134.874H604.583C603.946 134.874 603.432 135.388 603.432 136.026V139.627C603.432 140.264 603.946 140.779 604.583 140.779H612.881Z" fill="#EDCB3A"/>
<path d="M616.112 134.874H614.016V140.779H616.112V134.874Z" fill="#EDCB3A"/>
<path d="M618.327 134.874H617.22V140.779H618.327V134.874Z" fill="#EDCB3A"/>
<path d="M623.377 129.003H605.249C604.613 129.003 604.098 129.519 604.098 130.155V133.756C604.098 134.392 604.613 134.907 605.249 134.907H623.377C624.013 134.907 624.529 134.392 624.529 133.756V130.155C624.529 129.519 624.013 129.003 623.377 129.003Z" fill="#996B20"/>
<path d="M618.462 129.003H600.334C599.698 129.003 599.183 129.519 599.183 130.155V133.756C599.183 134.392 599.698 134.907 600.334 134.907H618.462C619.098 134.907 619.614 134.392 619.614 133.756V130.155C619.614 129.519 619.098 129.003 618.462 129.003Z" fill="#DBA32C"/>
<path d="M608.626 134.907V129.003H600.329C599.691 129.003 599.177 129.517 599.177 130.155V133.756C599.177 134.393 599.691 134.907 600.329 134.907H608.626Z" fill="#EDCB3A"/>
<path d="M611.863 129.003H609.767V134.907H611.863V129.003Z" fill="#EDCB3A"/>
<path d="M614.078 129.003H612.971V134.907H614.078V129.003Z" fill="#EDCB3A"/>
<path d="M834.166 155.466H816.039C815.402 155.466 814.887 155.982 814.887 156.618V160.218C814.887 160.855 815.402 161.37 816.039 161.37H834.166C834.802 161.37 835.318 160.855 835.318 160.218V156.618C835.318 155.982 834.802 155.466 834.166 155.466Z" fill="#996B20"/>
<path d="M829.251 155.466H811.124C810.487 155.466 809.972 155.982 809.972 156.618V160.218C809.972 160.855 810.487 161.37 811.124 161.37H829.251C829.887 161.37 830.403 160.855 830.403 160.218V156.618C830.403 155.982 829.887 155.466 829.251 155.466Z" fill="#DBA32C"/>
<path d="M819.421 161.37V155.466H811.124C810.486 155.466 809.972 155.98 809.972 156.618V160.218C809.972 160.856 810.486 161.37 811.124 161.37H819.421Z" fill="#EDCB3A"/>
<path d="M822.653 155.466H820.557V161.37H822.653V155.466Z" fill="#EDCB3A"/>
<path d="M824.867 155.466H823.76V161.37H824.867V155.466Z" fill="#EDCB3A"/>
<path d="M832.455 149.595H814.328C813.692 149.595 813.176 150.11 813.176 150.747V154.347C813.176 154.984 813.692 155.499 814.328 155.499H832.455C833.091 155.499 833.607 154.984 833.607 154.347V150.747C833.607 150.11 833.091 149.595 832.455 149.595Z" fill="#996B20"/>
<path d="M827.54 149.595H809.413C808.776 149.595 808.261 150.11 808.261 150.747V154.347C808.261 154.984 808.776 155.499 809.413 155.499H827.54C828.176 155.499 828.692 154.984 828.692 154.347V150.747C828.692 150.11 828.176 149.595 827.54 149.595Z" fill="#DBA32C"/>
<path d="M817.71 155.499V149.595H809.413C808.775 149.595 808.261 150.109 808.261 150.747V154.347C808.261 154.985 808.775 155.499 809.413 155.499H817.71Z" fill="#EDCB3A"/>
<path d="M820.941 149.595H818.845V155.499H820.941V149.595Z" fill="#EDCB3A"/>
<path d="M823.156 149.595H822.049V155.499H823.156V149.595Z" fill="#EDCB3A"/>
<path d="M836.296 143.72H818.168C817.532 143.72 817.017 144.235 817.017 144.872V148.472C817.017 149.109 817.532 149.624 818.168 149.624H836.296C836.932 149.624 837.447 149.109 837.447 148.472V144.872C837.447 144.235 836.932 143.72 836.296 143.72Z" fill="#996B20"/>
<path d="M831.376 143.72H813.248C812.612 143.72 812.097 144.235 812.097 144.872V148.472C812.097 149.109 812.612 149.624 813.248 149.624H831.376C832.012 149.624 832.528 149.109 832.528 148.472V144.872C832.528 144.235 832.012 143.72 831.376 143.72Z" fill="#DBA32C"/>
<path d="M821.546 149.624V143.72H813.248C812.611 143.72 812.097 144.234 812.097 144.872V148.472C812.097 149.11 812.611 149.624 813.248 149.624H821.546Z" fill="#EDCB3A"/>
<path d="M824.777 143.72H822.681V149.624H824.777V143.72Z" fill="#EDCB3A"/>
<path d="M826.992 143.72H825.885V149.624H826.992V143.72Z" fill="#EDCB3A"/>
<path d="M833.048 137.844H814.92C814.284 137.844 813.769 138.359 813.769 138.996V142.596C813.769 143.233 814.284 143.748 814.92 143.748H833.048C833.684 143.748 834.199 143.233 834.199 142.596V138.996C834.199 138.359 833.684 137.844 833.048 137.844Z" fill="#996B20"/>
<path d="M828.133 137.844H810.005C809.369 137.844 808.854 138.359 808.854 138.996V142.596C808.854 143.233 809.369 143.748 810.005 143.748H828.133C828.769 143.748 829.284 143.233 829.284 142.596V138.996C829.284 138.359 828.769 137.844 828.133 137.844Z" fill="#DBA32C"/>
<path d="M818.297 143.748V137.844H810C809.362 137.844 808.848 138.358 808.848 138.996V142.596C808.848 143.234 809.362 143.748 810 143.748H818.297Z" fill="#EDCB3A"/>
<path d="M821.534 137.844H819.438V143.748H821.534V137.844Z" fill="#EDCB3A"/>
<path d="M823.743 137.844H822.636V143.748H823.743V137.844Z" fill="#EDCB3A"/>
<path d="M837.504 131.966H819.376C818.74 131.966 818.225 132.482 818.225 133.118V136.718C818.225 137.355 818.74 137.87 819.376 137.87H837.504C838.14 137.87 838.655 137.355 838.655 136.718V133.118C838.655 132.482 838.14 131.966 837.504 131.966Z" fill="#996B20"/>
<path d="M832.589 131.966H814.461C813.825 131.966 813.31 132.482 813.31 133.118V136.718C813.31 137.355 813.825 137.87 814.461 137.87H832.589C833.225 137.87 833.74 137.355 833.74 136.718V133.118C833.74 132.482 833.225 131.966 832.589 131.966Z" fill="#DBA32C"/>
<path d="M822.759 137.87V131.966H814.461C813.824 131.966 813.31 132.48 813.31 133.118V136.718C813.31 137.356 813.824 137.87 814.461 137.87H822.759Z" fill="#EDCB3A"/>
<path d="M825.991 131.966H823.895V137.87H825.991V131.966Z" fill="#EDCB3A"/>
<path d="M828.205 131.966H827.098V137.87H828.205V131.966Z" fill="#EDCB3A"/>
<path d="M833.255 126.095H815.127C814.491 126.095 813.976 126.61 813.976 127.247V130.847C813.976 131.484 814.491 131.999 815.127 131.999H833.255C833.891 131.999 834.406 131.484 834.406 130.847V127.247C834.406 126.61 833.891 126.095 833.255 126.095Z" fill="#996B20"/>
<path d="M828.34 126.095H810.212C809.576 126.095 809.061 126.61 809.061 127.247V130.847C809.061 131.484 809.576 131.999 810.212 131.999H828.34C828.976 131.999 829.491 131.484 829.491 130.847V127.247C829.491 126.61 828.976 126.095 828.34 126.095Z" fill="#DBA32C"/>
<path d="M818.504 131.999V126.095H810.207C809.569 126.095 809.055 126.609 809.055 127.247V130.847C809.055 131.485 809.569 131.999 810.207 131.999H818.504Z" fill="#EDCB3A"/>
<path d="M821.736 126.095H819.64V131.999H821.736V126.095Z" fill="#EDCB3A"/>
<path d="M823.95 126.095H822.843V131.999H823.95V126.095Z" fill="#EDCB3A"/>
<path d="M644.915 158.393H626.788C626.151 158.393 625.636 158.908 625.636 159.544V163.145C625.636 163.781 626.151 164.297 626.788 164.297H644.915C645.551 164.297 646.067 163.781 646.067 163.145V159.544C646.067 158.908 645.551 158.393 644.915 158.393Z" fill="#996B20"/>
<path d="M640 158.393H621.873C621.236 158.393 620.721 158.908 620.721 159.544V163.145C620.721 163.781 621.236 164.297 621.873 164.297H640C640.636 164.297 641.152 163.781 641.152 163.145V159.544C641.152 158.908 640.636 158.393 640 158.393Z" fill="#DBA32C"/>
<path d="M630.164 164.297V158.393H621.867C621.229 158.393 620.715 158.907 620.715 159.544V163.145C620.715 163.783 621.229 164.297 621.867 164.297H630.164Z" fill="#EDCB3A"/>
<path d="M633.396 158.393H631.299V164.297H633.396V158.393Z" fill="#EDCB3A"/>
<path d="M635.61 158.393H634.503V164.297H635.61V158.393Z" fill="#EDCB3A"/>
<path d="M643.198 152.518H625.071C624.435 152.518 623.919 153.033 623.919 153.669V157.27C623.919 157.906 624.435 158.422 625.071 158.422H643.198C643.834 158.422 644.35 157.906 644.35 157.27V153.669C644.35 153.033 643.834 152.518 643.198 152.518Z" fill="#996B20"/>
<path d="M638.283 152.518H620.156C619.52 152.518 619.004 153.033 619.004 153.669V157.27C619.004 157.906 619.52 158.422 620.156 158.422H638.283C638.919 158.422 639.435 157.906 639.435 157.27V153.669C639.435 153.033 638.919 152.518 638.283 152.518Z" fill="#DBA32C"/>
<path d="M628.453 158.422V152.518H620.156C619.518 152.518 619.004 153.032 619.004 153.669V157.27C619.004 157.908 619.518 158.422 620.156 158.422H628.453Z" fill="#EDCB3A"/>
<path d="M631.685 152.518H629.588V158.422H631.685V152.518Z" fill="#EDCB3A"/>
<path d="M633.899 152.518H632.792V158.422H633.899V152.518Z" fill="#EDCB3A"/>
<path d="M647.04 146.639H628.913C628.276 146.639 627.761 147.154 627.761 147.79V151.391C627.761 152.027 628.276 152.543 628.913 152.543H647.04C647.676 152.543 648.192 152.027 648.192 151.391V147.79C648.192 147.154 647.676 146.639 647.04 146.639Z" fill="#996B20"/>
<path d="M642.125 146.639H623.998C623.361 146.639 622.846 147.154 622.846 147.79V151.391C622.846 152.027 623.361 152.543 623.998 152.543H642.125C642.761 152.543 643.277 152.027 643.277 151.391V147.79C643.277 147.154 642.761 146.639 642.125 146.639Z" fill="#DBA32C"/>
<path d="M632.289 152.543V146.639H623.992C623.354 146.639 622.84 147.153 622.84 147.79V151.391C622.84 152.029 623.354 152.543 623.992 152.543H632.289Z" fill="#EDCB3A"/>
<path d="M635.526 146.639H633.43V152.543H635.526V146.639Z" fill="#EDCB3A"/>
<path d="M637.741 146.639H636.634V152.543H637.741V146.639Z" fill="#EDCB3A"/>
<path d="M643.791 140.769H625.664C625.027 140.769 624.512 141.284 624.512 141.92V145.521C624.512 146.157 625.027 146.673 625.664 146.673H643.791C644.427 146.673 644.943 146.157 644.943 145.521V141.92C644.943 141.284 644.427 140.769 643.791 140.769Z" fill="#996B20"/>
<path d="M638.876 140.769H620.749C620.112 140.769 619.597 141.284 619.597 141.92V145.521C619.597 146.157 620.112 146.673 620.749 146.673H638.876C639.512 146.673 640.028 146.157 640.028 145.521V141.92C640.028 141.284 639.512 140.769 638.876 140.769Z" fill="#DBA32C"/>
<path d="M629.046 146.673V140.769H620.749C620.111 140.769 619.597 141.283 619.597 141.92V145.521C619.597 146.159 620.111 146.673 620.749 146.673H629.046Z" fill="#EDCB3A"/>
<path d="M632.277 140.769H630.181V146.673H632.277V140.769Z" fill="#EDCB3A"/>
<path d="M634.492 140.769H633.385V146.673H634.492V140.769Z" fill="#EDCB3A"/>
<path d="M648.247 134.893H630.12C629.483 134.893 628.968 135.408 628.968 136.044V139.645C628.968 140.281 629.483 140.797 630.12 140.797H648.247C648.883 140.797 649.399 140.281 649.399 139.645V136.044C649.399 135.408 648.883 134.893 648.247 134.893Z" fill="#996B20"/>
<path d="M643.332 134.893H625.205C624.568 134.893 624.053 135.408 624.053 136.044V139.645C624.053 140.281 624.568 140.797 625.205 140.797H643.332C643.968 140.797 644.484 140.281 644.484 139.645V136.044C644.484 135.408 643.968 134.893 643.332 134.893Z" fill="#DBA32C"/>
<path d="M633.502 140.797V134.893H625.205C624.567 134.893 624.053 135.407 624.053 136.044V139.645C624.053 140.283 624.567 140.797 625.205 140.797H633.502Z" fill="#EDCB3A"/>
<path d="M636.733 134.893H634.637V140.797H636.733V134.893Z" fill="#EDCB3A"/>
<path d="M638.948 134.893H637.841V140.797H638.948V134.893Z" fill="#EDCB3A"/>
<path d="M643.998 129.017H625.871C625.234 129.017 624.719 129.532 624.719 130.168V133.769C624.719 134.405 625.234 134.921 625.871 134.921H643.998C644.634 134.921 645.15 134.405 645.15 133.769V130.168C645.15 129.532 644.634 129.017 643.998 129.017Z" fill="#996B20"/>
<path d="M639.083 129.017H620.956C620.319 129.017 619.804 129.532 619.804 130.168V133.769C619.804 134.405 620.319 134.921 620.956 134.921H639.083C639.719 134.921 640.235 134.405 640.235 133.769V130.168C640.235 129.532 639.719 129.017 639.083 129.017Z" fill="#DBA32C"/>
<path d="M629.253 134.921V129.017H620.956C620.318 129.017 619.804 129.531 619.804 130.168V133.769C619.804 134.407 620.318 134.921 620.956 134.921H629.253Z" fill="#EDCB3A"/>
<path d="M632.484 129.017H630.388V134.921H632.484V129.017Z" fill="#EDCB3A"/>
<path d="M634.699 129.017H633.592V134.921H634.699V129.017Z" fill="#EDCB3A"/>
<path d="M643.975 163.312C651.447 160.217 654.995 151.651 651.9 144.179C648.805 136.707 640.239 133.159 632.767 136.253C625.295 139.348 621.747 147.915 624.842 155.387C627.937 162.858 636.503 166.407 643.975 163.312Z" fill="#996B20"/>
<path d="M638.49 135.137H636.041V164.43H638.49V135.137Z" fill="#996B20"/>
<path d="M648.513 157.017C652.497 149.979 650.023 141.044 642.985 137.059C635.947 133.074 627.012 135.549 623.027 142.586C619.042 149.624 621.517 158.56 628.554 162.545C635.592 166.529 644.528 164.055 648.513 157.017Z" fill="#DBA32C"/>
<path d="M640.188 159.683C645.657 157.238 648.108 150.822 645.663 145.353C643.218 139.884 636.802 137.433 631.333 139.878C625.864 142.323 623.413 148.739 625.858 154.208C628.303 159.677 634.719 162.128 640.188 159.683Z" fill="#EDCB3A"/>
<path d="M625.596 149.781C625.596 143.904 630.271 139.123 636.102 138.939C635.991 138.939 635.879 138.928 635.761 138.928C629.773 138.928 624.914 143.787 624.914 149.775C624.914 155.763 629.773 160.622 635.761 160.622C635.873 160.622 635.991 160.622 636.102 160.611C630.271 160.432 625.596 155.652 625.596 149.769V149.781Z" fill="#C18925"/>
<path d="M640.883 143.569C640.883 143.195 640.581 142.893 640.207 142.893H631.4C631.026 142.893 630.724 143.2 630.724 143.575C630.724 143.949 631.026 144.251 631.4 144.251H633.788C635.146 144.251 636.309 145.04 636.762 146.152H631.4C631.026 146.152 630.724 146.46 630.724 146.829C630.724 147.204 631.026 147.505 631.4 147.505H636.947C636.773 148.976 635.426 150.117 633.793 150.117H631.406C631.031 150.117 630.729 150.419 630.729 150.793C630.729 151.168 631.031 151.47 631.406 151.47H632.865L637.266 157.369C637.416 157.576 637.657 157.693 637.914 157.693C638.58 157.693 638.954 156.933 638.557 156.401L634.878 151.47H640.207C640.581 151.47 640.883 151.162 640.883 150.793C640.883 150.419 640.581 150.117 640.207 150.117H637.841C638.462 149.39 638.853 148.484 638.926 147.5H640.207C640.581 147.5 640.883 147.198 640.883 146.823C640.883 146.449 640.581 146.147 640.207 146.147H638.814C638.647 145.442 638.306 144.794 637.836 144.246H640.201C640.576 144.246 640.878 143.944 640.878 143.569H640.883Z" fill="#AA7921"/>
<path d="M691.463 84.0561L698.391 73.9189C701.281 69.6918 698.251 63.9551 693.129 63.9551H651.938C646.816 63.9551 643.791 69.6918 646.676 73.9189L653.682 84.1679C655.561 86.9132 655.007 90.6371 652.413 92.7227C640.358 102.429 629.242 118.393 629.242 133.467C629.242 157.309 648.572 164.505 672.413 164.505C696.255 164.505 715.584 157.309 715.584 133.467C715.584 118.342 704.793 102.317 692.727 92.6164C690.132 90.5309 689.573 86.807 691.452 84.0561H691.463Z" fill="#D0B170"/>
<path d="M692.732 92.6164C690.138 90.5309 689.579 86.807 691.457 84.0561L698.385 73.9189C701.276 69.6918 698.245 63.9551 693.124 63.9551H689.702C694.823 63.9551 697.848 69.6918 694.963 73.9189L688.035 84.0561C686.157 86.807 686.71 90.5309 689.31 92.6164C701.376 102.312 712.168 118.337 712.168 133.467C712.168 156.738 693.755 164.147 670.702 164.494C671.267 164.505 671.837 164.505 672.413 164.505C696.255 164.505 715.584 157.309 715.584 133.467C715.584 118.342 704.793 102.317 692.727 92.6164H692.732Z" fill="#B79963"/>
<path d="M682.678 92.6162C680.084 90.5306 679.525 86.8067 681.404 84.0558L688.331 73.9186C691.222 69.6916 688.192 63.9548 683.07 63.9548H678.418C676.215 63.9548 674.09 62.9875 672.771 61.2262C671.3 59.2692 668.963 58 666.324 58C663.685 58 661.347 59.2692 659.877 61.2262C658.557 62.9875 656.427 63.9548 654.23 63.9548H652.01C646.888 63.9548 643.863 69.6916 646.748 73.9186L653.754 84.1676C655.633 86.913 655.079 90.6368 652.485 92.7224C640.43 102.429 629.314 118.392 629.314 133.467C629.314 157.308 643.93 164.504 667.778 164.504C691.625 164.504 705.525 157.308 705.525 133.467C705.525 118.342 694.734 102.317 682.667 92.6162H682.678Z" fill="#E8C585"/>
<path d="M648.574 111.685C652.66 106.226 654.45 100.662 652.574 99.2575C650.697 97.8532 645.864 101.14 641.779 106.599C637.694 112.058 635.903 117.622 637.78 119.026C639.656 120.43 644.489 117.144 648.574 111.685Z" fill="#F9DEB2"/>
<path d="M650.847 68.9365C649.192 70.0436 647.509 70.435 647.095 69.8144C646.681 69.1938 647.682 67.7903 649.337 66.6832C650.992 65.5761 652.675 65.1847 653.089 65.8054C653.503 66.426 652.502 67.8295 650.847 68.9365Z" fill="#F9DEB2"/>
<path d="M684.072 93.9629H654.879C653.94 93.9629 653.168 93.1913 653.168 92.252C653.168 91.3126 653.94 90.541 654.879 90.541H684.072C685.011 90.541 685.782 91.3126 685.782 92.252C685.782 93.1913 685.011 93.9629 684.072 93.9629Z" fill="#D0B170"/>
<path d="M705.268 164.424C713.355 164.424 719.912 157.868 719.912 149.781C719.912 141.693 713.355 135.137 705.268 135.137C697.18 135.137 690.624 141.693 690.624 149.781C690.624 157.868 697.18 164.424 705.268 164.424Z" fill="#996B20"/>
<path d="M705.386 135.137H702.937V164.43H705.386V135.137Z" fill="#996B20"/>
<path d="M713.008 160.14C718.726 154.421 718.726 145.149 713.008 139.43C707.289 133.712 698.017 133.712 692.298 139.43C686.579 145.149 686.579 154.421 692.298 160.14C698.017 165.859 707.289 165.859 713.008 160.14Z" fill="#DBA32C"/>
<path d="M702.657 160.628C708.648 160.628 713.504 155.772 713.504 149.781C713.504 143.79 708.648 138.934 702.657 138.934C696.666 138.934 691.81 143.79 691.81 149.781C691.81 155.772 696.666 160.628 702.657 160.628Z" fill="#EDCB3A"/>
<path d="M692.492 149.782C692.492 143.905 697.166 139.124 702.998 138.94C702.886 138.94 702.774 138.929 702.657 138.929C696.668 138.929 691.81 143.788 691.81 149.776C691.81 155.764 696.668 160.623 702.657 160.623C702.769 160.623 702.886 160.623 702.998 160.612C697.166 160.433 692.492 155.653 692.492 149.77V149.782Z" fill="#C18925"/>
<path d="M611.251 156.941C615.788 150.246 614.04 141.141 607.345 136.603C600.651 132.065 591.545 133.814 587.007 140.508C582.47 147.203 584.218 156.308 590.913 160.846C597.607 165.384 606.713 163.635 611.251 156.941Z" fill="#996B20"/>
<path d="M587.066 140.407L585.692 142.435L609.94 158.87L611.314 156.843L587.066 140.407Z" fill="#996B20"/>
<path d="M600.747 165.158C608.653 163.452 613.678 155.66 611.972 147.754C610.265 139.849 602.474 134.823 594.568 136.53C586.663 138.236 581.637 146.028 583.344 153.933C585.05 161.839 592.842 166.864 600.747 165.158Z" fill="#DBA32C"/>
<path d="M597.651 161.713C603.642 161.713 608.498 156.857 608.498 150.866C608.498 144.875 603.642 140.019 597.651 140.019C591.66 140.019 586.804 144.875 586.804 150.866C586.804 156.857 591.66 161.713 597.651 161.713Z" fill="#EDCB3A"/>
<path d="M591.948 159.281C587.083 155.982 585.747 149.429 588.873 144.503C588.806 144.592 588.738 144.687 588.677 144.777C585.317 149.736 586.614 156.48 591.568 159.84C596.527 163.2 603.27 161.903 606.631 156.949C606.692 156.854 606.754 156.759 606.815 156.664C603.393 161.394 596.812 162.58 591.948 159.281Z" fill="#C18925"/>
<path d="M831.705 161.328C839.793 161.328 846.349 154.771 846.349 146.684C846.349 138.596 839.793 132.04 831.705 132.04C823.618 132.04 817.062 138.596 817.062 146.684C817.062 154.771 823.618 161.328 831.705 161.328Z" fill="#996B20"/>
<path d="M831.823 132.04H829.374V161.333H831.823V132.04Z" fill="#996B20"/>
<path d="M839.455 157.034C845.174 151.316 845.174 142.044 839.455 136.325C833.736 130.606 824.464 130.606 818.745 136.325C813.027 142.044 813.027 151.316 818.745 157.034C824.464 162.753 833.736 162.753 839.455 157.034Z" fill="#DBA32C"/>
<path d="M829.1 157.53C835.091 157.53 839.947 152.674 839.947 146.683C839.947 140.692 835.091 135.836 829.1 135.836C823.109 135.836 818.253 140.692 818.253 146.683C818.253 152.674 823.109 157.53 829.1 157.53Z" fill="#EDCB3A"/>
<path d="M818.929 146.683C818.929 140.806 823.604 136.026 829.435 135.841C829.324 135.841 829.212 135.83 829.094 135.83C823.106 135.83 818.247 140.689 818.247 146.677C818.247 152.666 823.106 157.525 829.094 157.525C829.206 157.525 829.324 157.525 829.435 157.513C823.604 157.334 818.929 152.554 818.929 146.672V146.683Z" fill="#C18925"/>
<path d="M834.221 140.472C834.221 140.098 833.919 139.796 833.544 139.796H824.738C824.363 139.796 824.062 140.103 824.062 140.478C824.062 140.853 824.363 141.155 824.738 141.155H827.126C828.484 141.155 829.647 141.943 830.1 143.056H824.738C824.363 143.056 824.062 143.363 824.062 143.732C824.062 144.107 824.363 144.409 824.738 144.409H830.285C830.111 145.879 828.764 147.02 827.131 147.02H824.744C824.369 147.02 824.067 147.322 824.067 147.697C824.067 148.071 824.369 148.373 824.744 148.373H826.203L830.603 154.272C830.754 154.479 830.995 154.596 831.252 154.596C831.917 154.596 832.292 153.836 831.895 153.305L828.216 148.373H833.544C833.919 148.373 834.221 148.066 834.221 147.697C834.221 147.322 833.919 147.02 833.544 147.02H831.179C831.8 146.293 832.191 145.387 832.264 144.403H833.544C833.919 144.403 834.221 144.101 834.221 143.727C834.221 143.352 833.919 143.05 833.544 143.05H832.152C831.984 142.346 831.643 141.697 831.174 141.149H833.539C833.913 141.149 834.215 140.847 834.215 140.472H834.221Z" fill="#AA7921"/>
<path d="M690.938 84.9824H679.297C677.361 84.9824 675.791 86.552 675.791 88.4882C675.791 90.4244 677.361 91.994 679.297 91.994H690.938C692.874 91.994 694.444 90.4244 694.444 88.4882C694.444 86.552 692.874 84.9824 690.938 84.9824Z" fill="#494136"/>
<path d="M687.074 84.9824H679.297C677.361 84.9824 675.791 86.552 675.791 88.4882C675.791 90.4244 677.361 91.994 679.297 91.994H687.074C689.011 91.994 690.58 90.4244 690.58 88.4882C690.58 86.552 689.011 84.9824 687.074 84.9824Z" fill="#554C3D"/>
<path d="M678.441 84.9824H654.029C652.093 84.9824 650.523 86.552 650.523 88.4882C650.523 90.4244 652.093 91.994 654.029 91.994H678.441C680.377 91.994 681.947 90.4244 681.947 88.4882C681.947 86.552 680.377 84.9824 678.441 84.9824Z" fill="#685D4E"/>
<path d="M676.881 100.491L671.475 89.8284C670.602 88.1063 668.483 87.413 666.761 88.2852C665.039 89.1575 664.346 91.2766 665.218 92.9987L670.625 103.661C671.497 105.384 673.616 106.077 675.338 105.205C677.06 104.332 677.754 102.213 676.881 100.491Z" fill="#554C3D"/>
<path d="M675.791 100.491L670.384 89.8284C669.511 88.1063 667.392 87.413 665.67 88.2852C663.948 89.1575 663.255 91.2766 664.127 92.9987L669.534 103.661C670.406 105.384 672.525 106.077 674.247 105.205C675.97 104.332 676.663 102.213 675.791 100.491Z" fill="#685D4E"/>
<path d="M657.731 100.491L663.137 89.8284C664.01 88.1063 666.129 87.413 667.851 88.2852C669.573 89.1575 670.266 91.2766 669.394 92.9987L663.987 103.661C663.115 105.384 660.996 106.077 659.274 105.205C657.552 104.332 656.858 102.213 657.731 100.491Z" fill="#554C3D"/>
<path d="M656.719 100.491L662.126 89.8284C662.998 88.1063 665.117 87.413 666.839 88.2852C668.561 89.1575 669.255 91.2766 668.382 92.9987L662.976 103.661C662.103 105.384 659.984 106.077 658.262 105.205C656.54 104.332 655.847 102.213 656.719 100.491Z" fill="#685D4E"/>
<path d="M666.532 93.7649C669.326 93.7649 671.592 91.4994 671.592 88.7047C671.592 85.9101 669.326 83.6445 666.532 83.6445C663.737 83.6445 661.472 85.9101 661.472 88.7047C661.472 91.4994 663.737 93.7649 666.532 93.7649Z" fill="#776C5E"/>
<path d="M668.674 85.9034C668.674 86.6582 667.712 87.2677 666.532 87.2677C665.352 87.2677 664.391 86.6582 664.391 85.9034C664.391 85.1485 665.352 84.5391 666.532 84.5391C667.712 84.5391 668.674 85.1485 668.674 85.9034Z" fill="#877B6F"/>
<path d="M666.532 91.5841C664.111 91.5841 662.092 89.8844 661.595 87.6143C661.516 87.9665 661.472 88.33 661.472 88.7046C661.472 91.5003 663.736 93.7648 666.532 93.7648C669.328 93.7648 671.592 91.5003 671.592 88.7046C671.592 88.33 671.547 87.9665 671.469 87.6143C670.971 89.8844 668.947 91.5841 666.532 91.5841Z" fill="#554C3D"/>
<path d="M694.27 140.338C693.996 138.705 692.699 137.43 691.061 137.179C692.699 136.933 693.996 135.652 694.27 134.02C694.544 135.652 695.841 136.927 697.479 137.179C695.841 137.425 694.544 138.705 694.27 140.338Z" fill="white"/>
<path d="M583.594 149.843C583.32 148.21 582.023 146.935 580.385 146.684C582.023 146.438 583.32 145.157 583.594 143.524C583.868 145.157 585.165 146.432 586.804 146.684C585.165 146.93 583.868 148.21 583.594 149.843Z" fill="white"/>
<path d="M844.566 132.313C844.292 130.681 842.995 129.406 841.356 129.154C842.995 128.908 844.292 127.628 844.566 125.995C844.84 127.628 846.137 128.903 847.775 129.154C846.137 129.4 844.84 130.681 844.566 132.313Z" fill="white"/>
<path d="M822.603 132.142C822.329 130.509 821.032 129.234 819.394 128.982C821.032 128.736 822.329 127.456 822.603 125.823C822.877 127.456 824.174 128.731 825.813 128.982C824.174 129.228 822.877 130.509 822.603 132.142Z" fill="white"/>
<path d="M629.471 140.276C629.197 138.644 627.9 137.369 626.262 137.117C627.9 136.871 629.197 135.591 629.471 133.958C629.745 135.591 631.042 136.866 632.681 137.117C631.042 137.363 629.745 138.644 629.471 140.276Z" fill="white"/>
<path d="M713.991 163.129C713.717 161.496 712.42 160.221 710.781 159.97C712.42 159.724 713.717 158.443 713.991 156.811C714.265 158.443 715.562 159.718 717.2 159.97C715.562 160.216 714.265 161.496 713.991 163.129Z" fill="white"/>
<path d="M668.818 149.145H640.968C639.661 149.145 638.603 150.203 638.603 151.51V162.642C638.603 163.948 639.661 165.007 640.968 165.007H668.818C670.125 165.007 671.183 163.948 671.183 162.642V151.51C671.183 150.203 670.125 149.145 668.818 149.145Z" fill="#406052"/>
<path d="M668.046 162.651L668.04 151.518C668.04 150.212 666.98 149.154 665.674 149.155L637.823 149.169C636.517 149.17 635.459 150.229 635.459 151.536L635.465 162.668C635.466 163.974 636.525 165.033 637.832 165.032L665.682 165.017C666.988 165.017 668.047 163.957 668.046 162.651Z" fill="#BDEFDC"/>
<path d="M665.636 149.933H637.786C636.915 149.933 636.209 150.639 636.209 151.509V162.636C636.209 163.507 636.915 164.213 637.786 164.213H665.636C666.507 164.213 667.213 163.507 667.213 162.636V151.509C667.213 150.639 666.507 149.933 665.636 149.933Z" fill="#8ED2BB"/>
<path d="M665.63 149.927H651.708L651.714 164.213H665.636C666.508 164.208 667.213 163.503 667.213 162.631V151.499C667.213 150.626 666.503 149.922 665.63 149.922V149.927Z" fill="#64A08A"/>
<path d="M658.3 157.074C658.3 160.714 655.354 163.666 651.708 163.671C648.068 163.671 645.116 160.725 645.11 157.079C645.105 153.434 648.057 150.487 651.703 150.481C655.343 150.481 658.295 153.428 658.3 157.074Z" fill="#BDEFDC"/>
<path d="M640.855 149.938H637.78C636.908 149.938 636.203 150.648 636.203 151.514V154.606C638.753 154.55 640.81 152.487 640.855 149.938Z" fill="#406052"/>
<path d="M636.198 159.571V162.647C636.198 163.519 636.908 164.223 637.775 164.223H640.867C640.811 161.674 638.748 159.616 636.198 159.571Z" fill="#406052"/>
<path d="M662.562 164.208H665.637C666.509 164.208 667.214 163.498 667.214 162.631V159.539C664.664 159.595 662.606 161.658 662.562 164.208Z" fill="#406052"/>
<path d="M667.219 154.574V151.499C667.219 150.626 666.508 149.922 665.642 149.922H662.55C662.606 152.472 664.669 154.529 667.219 154.574Z" fill="#406052"/>
<path d="M865.231 146.286H837.381C836.075 146.286 835.016 147.345 835.016 148.651V159.784C835.016 161.09 836.075 162.149 837.381 162.149H865.231C866.538 162.149 867.597 161.09 867.597 159.784V148.651C867.597 147.345 866.538 146.286 865.231 146.286Z" fill="#406052"/>
<path d="M864.473 159.797L864.467 148.665C864.466 147.359 863.407 146.3 862.101 146.301L834.25 146.316C832.944 146.316 831.885 147.376 831.886 148.682L831.892 159.814C831.893 161.121 832.952 162.179 834.258 162.178L862.109 162.164C863.415 162.163 864.474 161.104 864.473 159.797Z" fill="#BDEFDC"/>
<path d="M862.045 147.075H834.194C833.323 147.075 832.617 147.781 832.617 148.652V159.779C832.617 160.65 833.323 161.356 834.194 161.356H862.045C862.915 161.356 863.621 160.65 863.621 159.779V148.652C863.621 147.781 862.915 147.075 862.045 147.075Z" fill="#8ED2BB"/>
<path d="M862.039 147.07H848.116L848.122 161.356H862.044C862.917 161.35 863.621 160.646 863.621 159.774V148.641C863.621 147.769 862.911 147.064 862.039 147.064V147.07Z" fill="#64A08A"/>
<path d="M854.709 154.215C854.709 157.855 851.762 160.807 848.116 160.813C844.476 160.813 841.524 157.866 841.519 154.221C841.513 150.575 844.465 147.629 848.111 147.623C851.751 147.623 854.703 150.57 854.709 154.215Z" fill="#BDEFDC"/>
<path d="M851.292 150.314C851.292 150.079 851.102 149.889 850.867 149.889H845.36C845.125 149.889 844.935 150.079 844.935 150.314C844.935 150.548 845.125 150.739 845.36 150.739H846.852C847.702 150.739 848.429 151.231 848.714 151.93H845.36C845.125 151.93 844.935 152.12 844.935 152.354C844.935 152.589 845.125 152.779 845.36 152.779H848.826C848.72 153.696 847.876 154.412 846.852 154.412H845.36C845.125 154.412 844.935 154.602 844.935 154.837C844.935 155.072 845.125 155.262 845.36 155.262H846.271L849.022 158.952C849.117 159.081 849.268 159.154 849.43 159.154C849.844 159.154 850.084 158.678 849.833 158.348L847.529 155.262H850.861C851.096 155.262 851.286 155.072 851.286 154.837C851.286 154.602 851.096 154.412 850.861 154.412H849.38C849.765 153.954 850.012 153.394 850.056 152.779H850.856C851.091 152.779 851.281 152.589 851.281 152.354C851.281 152.12 851.091 151.93 850.856 151.93H849.984C849.877 151.488 849.665 151.085 849.374 150.739H850.856C851.091 150.739 851.281 150.548 851.281 150.314H851.292Z" fill="#406052"/>
<path d="M837.263 147.082H834.188C833.316 147.082 832.611 147.792 832.611 148.659V151.751C835.161 151.695 837.219 149.632 837.263 147.082Z" fill="#406052"/>
<path d="M832.611 156.714V159.789C832.611 160.661 833.321 161.366 834.188 161.366H837.28C837.224 158.816 835.161 156.759 832.611 156.714Z" fill="#406052"/>
<path d="M858.969 161.349H862.044C862.916 161.349 863.621 160.639 863.621 159.773V156.681C861.071 156.737 859.013 158.8 858.969 161.349Z" fill="#406052"/>
<path d="M863.627 151.716V148.641C863.627 147.769 862.917 147.064 862.05 147.064H858.958C859.014 149.614 861.077 151.672 863.627 151.716Z" fill="#406052"/>
<g clip-path="url(#clip2_3_3536)">
<path d="M823.926 13.1931C823.926 13.1931 862.409 9.01707 849.616 35.0246C849.616 35.0246 879.245 40.3107 858.021 65.5254C858.021 65.5254 885.43 83.7888 864.153 95.4183C864.153 95.4183 882.654 132.817 845.52 118.968C845.52 118.968 829.001 146.746 806.588 121.611C806.588 121.611 770.378 144.077 769.056 118.968C769.056 118.968 739.666 115.823 767.021 91.2422C767.021 91.2422 755.577 83.3131 768.818 65.5254C768.818 65.5254 753.409 55.1382 774.105 41.738C774.105 41.738 759.092 25.8797 782.377 17.9506C782.377 17.9506 777.963 -1.2908 802.068 8.93779C801.989 8.8585 804.896 -9.61639 823.926 13.1931Z" fill="#263238"/>
<path d="M869.384 164.585C882.785 173.518 886.776 188.769 885.533 204.072C885.322 206.953 880.802 207.032 881.04 204.072C882.124 190.513 879.19 176.452 867.164 168.417C864.785 166.805 866.979 162.867 869.384 164.505V164.585Z" fill="#6E71CC"/>
<g opacity="0.2">
<path d="M869.382 164.585C882.783 173.518 886.774 188.769 885.531 204.072C885.32 206.953 880.8 207.032 881.038 204.072C882.122 190.513 879.188 176.452 867.162 168.417C864.784 166.805 866.977 162.867 869.382 164.505V164.585Z" fill="black"/>
</g>
<path d="M838.595 112.094L804.235 112.57C797.337 112.651 790.716 115.302 785.667 120.004C780.619 124.705 777.504 131.121 776.933 137.996C775.677 163.789 776.021 189.634 777.963 215.384C777.963 216.151 778.122 217.102 778.28 218.16C779.196 224.818 782.515 230.913 787.612 235.294C792.709 239.676 799.232 242.042 805.953 241.947L854.03 241.286C859.76 241.25 865.333 239.413 869.962 236.036C874.591 232.659 878.042 227.913 879.826 222.468C879.826 221.992 880.091 221.569 880.17 221.173C882.258 211.42 882.813 190.725 879.641 181.236C877.897 175.95 868.408 168.444 866.69 163.158C864.047 154.991 869.624 136.727 866.215 128.798C863.863 125.004 860.866 121.65 857.36 118.887C852.166 114.37 845.477 111.948 838.595 112.094Z" fill="#6E71CC"/>
<path opacity="0.5" d="M838.595 112.094L804.235 112.57C797.337 112.651 790.716 115.302 785.667 120.004C780.619 124.705 777.504 131.121 776.933 137.996C775.677 163.789 776.021 189.634 777.963 215.384C777.963 216.151 778.122 217.102 778.28 218.16C779.196 224.818 782.515 230.913 787.612 235.294C792.709 239.676 799.232 242.042 805.953 241.947L854.03 241.286C859.76 241.25 865.333 239.413 869.962 236.036C874.591 232.659 878.042 227.913 879.826 222.468C879.826 221.992 880.091 221.569 880.17 221.173C882.258 211.42 882.813 190.725 879.641 181.236C877.897 175.95 868.408 168.444 866.69 163.158C864.047 154.991 869.624 136.727 866.215 128.798C863.863 125.004 860.866 121.65 857.36 118.887C852.166 114.37 845.477 111.948 838.595 112.094Z" fill="black"/>
<path d="M852.337 117.831C852.745 117.267 853.279 116.806 853.896 116.483C855.125 117.263 856.283 118.147 857.359 119.126C860.864 121.89 863.861 125.244 866.213 129.038C869.622 136.967 863.993 155.257 866.689 163.397C868.407 168.684 877.895 176.19 879.639 181.476C882.732 190.964 882.283 211.659 880.168 221.412C880.168 221.809 879.957 222.232 879.824 222.707C878.305 227.445 875.516 231.675 871.76 234.937C868.004 238.199 863.425 240.368 858.522 241.209C857.553 240.806 856.66 240.243 855.878 239.544C851.888 235.368 847.183 125.549 852.337 117.831Z" fill="#6E71CC"/>
<path opacity="0.2" d="M852.337 117.831C852.745 117.267 853.279 116.806 853.896 116.483C855.125 117.263 856.283 118.147 857.359 119.126C860.864 121.89 863.861 125.244 866.213 129.038C869.622 136.967 863.993 155.257 866.689 163.397C868.407 168.684 877.895 176.19 879.639 181.476C882.732 190.964 882.283 211.659 880.168 221.412C880.168 221.809 879.957 222.232 879.824 222.707C878.305 227.445 875.516 231.675 871.76 234.937C868.004 238.199 863.425 240.368 858.522 241.209C857.553 240.806 856.66 240.243 855.878 239.544C851.888 235.368 847.183 125.549 852.337 117.831Z" fill="white"/>
<path d="M753.964 122.459C753.964 124.389 754.122 126.741 754.175 128.908C754.228 131.076 754.175 133.375 754.175 135.595C754.175 140.062 754.017 144.555 753.726 148.996C753.267 157.865 752.225 166.694 750.607 175.426L749.92 178.65L749.576 180.236C749.576 180.606 749.576 180.474 749.576 180.58C749.576 180.686 749.735 180.871 748.968 181.479C746.017 183.008 742.751 183.832 739.427 183.884C730.652 184.253 721.862 183.766 713.182 182.43L710.248 192.13C719.473 196.187 729.288 198.74 739.321 199.689C745.406 200.379 751.564 199.468 757.188 197.046C759.043 196.162 760.753 195.003 762.263 193.61C763.923 192.069 765.292 190.243 766.307 188.218C766.518 187.716 766.756 187.188 766.968 186.659L767.232 185.892L767.443 185.232L767.972 183.434L769.003 179.813C771.517 170.284 773.215 160.558 774.077 150.74C774.5 145.85 774.791 140.961 774.817 136.045C774.817 133.587 774.817 131.155 774.817 128.67C774.817 126.186 774.632 123.834 774.394 121.085L753.964 122.459Z" fill="#FD967A"/>
<path d="M758.08 102.451C751.525 105.252 751.023 134.167 751.023 134.167L771.798 144.105C771.798 144.105 785.515 112.996 779.119 106.309C772.723 99.6224 767.674 98.3538 758.08 102.451Z" fill="#6E71CC"/>
<path opacity="0.7" d="M758.08 102.451C751.525 105.252 751.023 134.167 751.023 134.167L771.798 144.105C771.798 144.105 785.515 112.996 779.119 106.309C772.723 99.6224 767.674 98.3538 758.08 102.451Z" fill="white"/>
<path opacity="0.2" d="M760.016 108.027L757.479 137.048L768.817 143.233L760.016 108.027Z" fill="black"/>
<path d="M759.514 107.789C758.774 118.149 759.805 142.835 769.32 201.432H837.405C836.295 174.869 837.907 161.786 849.721 110.617C850.181 108.692 849.905 106.665 848.946 104.934C847.988 103.202 846.416 101.892 844.541 101.26C836.802 98.4119 828.71 96.6335 820.489 95.9743C810.194 95.2469 799.861 95.2469 789.566 95.9743C781.505 96.7143 772.782 98.1416 767.179 99.1459C765.125 99.5337 763.257 100.593 761.87 102.157C760.482 103.722 759.654 105.702 759.514 107.789Z" fill="#6E71CC"/>
<path opacity="0.9" d="M820.567 95.9738C822.628 95.9738 824.716 96.3174 826.804 96.6346C827.676 99.5684 828.496 107.445 816.523 116.325C816.523 116.325 812.347 106.784 790.542 114.29C790.542 114.29 781.714 105.859 776.586 112.466C776.639 109.434 777.344 106.448 778.653 103.712C779.962 100.975 781.844 98.5527 784.172 96.6082C785.996 96.3703 787.846 96.1853 789.643 96.0003C799.937 95.264 810.271 95.2552 820.567 95.9738Z" fill="white"/>
<path d="M820.536 95.9954C810.251 95.2281 799.924 95.2281 789.639 95.9954L787.63 96.1804C785.146 100.859 784.538 101.916 790.432 112.462C790.432 112.462 817.55 107.678 824.606 96.2597C823.391 96.1276 821.911 96.0483 820.536 95.9954Z" fill="#FD967A"/>
<path d="M817.498 61.1914C815.542 71.1293 813.586 89.3399 820.563 95.9739C820.563 95.9739 817.92 106.07 799.419 106.07C779.094 106.07 789.693 95.9739 789.693 95.9739C800.794 93.3309 800.503 85.111 798.573 77.4726L817.498 61.1914Z" fill="#FD967A"/>
<path opacity="0.2" d="M809.754 67.7998L798.521 77.3676C799.002 79.1679 799.321 81.0078 799.473 82.8652C803.728 82.2573 809.543 77.5791 810.045 73.1652C810.274 71.3739 810.175 69.5559 809.754 67.7998Z" fill="black"/>
<path d="M828.234 43.9601C824.428 60.1356 823.159 67.0868 813.485 74.0644C798.896 84.6366 779.813 76.3903 778.703 59.3955C777.699 44.0923 783.989 20.1728 801.195 16.3932C804.969 15.543 808.897 15.6708 812.607 16.7648C816.317 17.8587 819.686 19.8824 822.395 22.6438C825.103 25.4053 827.061 28.8129 828.083 32.5435C829.105 36.2741 829.157 40.2039 828.234 43.9601Z" fill="#FD967A"/>
<path d="M801.036 13.1943C794.455 14.3308 786.103 24.1101 784.359 28.0747C794.217 26.2774 821.361 34.6823 821.361 34.6823C821.361 34.6823 833.519 33.3079 826.648 23.9251C819.776 14.5423 801.036 13.1943 801.036 13.1943Z" fill="#263238"/>
<path d="M799.604 43.8492C799.393 45.1707 798.494 46.1486 797.622 45.99C796.75 45.8314 796.221 44.6421 796.459 43.347C796.697 42.0519 797.569 41.0475 798.441 41.1797C799.313 41.3118 799.974 42.5012 799.604 43.8492Z" fill="#263238"/>
<path d="M785.333 41.2878C785.121 42.6094 784.223 43.5873 783.35 43.4287C782.478 43.2701 781.949 42.0807 782.187 40.7856C782.425 39.4906 783.297 38.5126 784.17 38.6448C785.042 38.7769 785.57 39.9399 785.333 41.2878Z" fill="#263238"/>
<path d="M784.537 38.7506L781.498 37.2705C781.498 37.2705 782.713 40.0457 784.537 38.7506Z" fill="#263238"/>
<path d="M789.217 44.4854C787.517 47.3201 785.436 49.9081 783.032 52.1766C783.63 52.7748 784.351 53.2359 785.146 53.528C785.94 53.82 786.788 53.9361 787.631 53.8682L789.217 44.4854Z" fill="#ED893E"/>
<path d="M791.356 61.6376C790.691 61.6384 790.027 61.5764 789.374 61.4525C789.315 61.454 789.257 61.4424 789.203 61.4187C789.15 61.395 789.102 61.3597 789.064 61.3154C789.025 61.271 788.997 61.2187 788.982 61.1623C788.966 61.1058 788.963 61.0466 788.973 60.9889C788.983 60.9311 789.005 60.8763 789.039 60.8283C789.073 60.7804 789.117 60.7405 789.168 60.7115C789.219 60.6826 789.275 60.6653 789.334 60.6609C789.392 60.6565 789.451 60.6651 789.506 60.6861C791.155 61.0045 792.856 60.9312 794.472 60.4721C796.088 60.013 797.574 59.181 798.809 58.043C798.883 57.9704 798.983 57.9297 799.087 57.9297C799.19 57.9297 799.29 57.9704 799.364 58.043C799.437 58.1171 799.478 58.2167 799.478 58.3205C799.478 58.4243 799.437 58.524 799.364 58.5981C798.3 59.6135 797.043 60.4056 795.667 60.9276C794.292 61.4497 792.826 61.691 791.356 61.6376Z" fill="#263238"/>
<path d="M807.959 41.8193C807.79 41.8174 807.625 41.763 807.488 41.6636C807.351 41.5642 807.247 41.4246 807.193 41.2642C806.656 40.0827 805.882 39.0245 804.917 38.1559C803.953 37.2873 802.82 36.6269 801.59 36.216C801.492 36.186 801.401 36.1367 801.322 36.0709C801.243 36.0052 801.179 35.9243 801.132 35.8332C801.085 35.742 801.057 35.6423 801.049 35.5401C801.042 35.4379 801.055 35.3352 801.087 35.2381C801.117 35.1367 801.168 35.0424 801.235 34.9606C801.302 34.8789 801.385 34.8114 801.478 34.7622C801.572 34.7129 801.674 34.6829 801.78 34.6738C801.885 34.6648 801.991 34.6769 802.092 34.7095C803.565 35.1946 804.919 35.9875 806.063 37.0355C807.206 38.0836 808.114 39.3628 808.726 40.7885C808.758 40.8873 808.77 40.9917 808.761 41.0953C808.751 41.1989 808.721 41.2995 808.671 41.391C808.622 41.4824 808.554 41.5629 808.473 41.6274C808.391 41.692 808.298 41.7392 808.197 41.7664L807.959 41.8193Z" fill="#263238"/>
<path d="M783.195 35.3411C783.062 35.3549 782.927 35.3356 782.802 35.2849C782.678 35.2342 782.568 35.1537 782.482 35.0504C782.414 34.9702 782.364 34.877 782.334 34.7766C782.304 34.6762 782.295 34.5708 782.308 34.4667C782.32 34.3627 782.354 34.2623 782.406 34.1718C782.459 34.0812 782.53 34.0025 782.614 33.9403C783.583 33.1398 784.727 32.5809 785.954 32.3098C787.181 32.0387 788.455 32.0631 789.671 32.3809C789.77 32.4139 789.861 32.466 789.94 32.5343C790.019 32.6027 790.083 32.6858 790.13 32.7791C790.177 32.8723 790.204 32.9739 790.212 33.0779C790.219 33.1819 790.206 33.2863 790.173 33.3853C790.14 33.4842 790.088 33.5756 790.02 33.6544C789.951 33.7332 789.868 33.7977 789.775 33.8444C789.682 33.891 789.58 33.9188 789.476 33.9262C789.372 33.9336 789.268 33.9204 789.169 33.8874C788.203 33.651 787.195 33.645 786.226 33.87C785.257 34.095 784.355 34.5446 783.592 35.1825L783.195 35.3411Z" fill="#263238"/>
<path d="M798.943 41.3112L795.904 39.8311C795.904 39.8311 797.12 42.6062 798.943 41.3112Z" fill="#263238"/>
<path d="M776.981 143.842L787.553 119.896C787.553 119.896 779.413 131.103 776.532 126.768C774.126 123.147 785.386 117.835 789.007 116.196C789.345 116.05 789.716 115.995 790.082 116.037C790.449 116.079 790.798 116.215 791.095 116.434C795.059 119.315 809.332 130.495 802.856 136.812C795.35 144.08 791.518 118.601 791.518 118.601L793.368 146.697L789.985 148.018L789.588 120.002L779.518 146.644L776.981 143.842ZM778.065 125.711C779.28 127.217 785.122 119.817 785.122 119.817C785.122 119.817 776.822 124.204 778.065 125.711ZM801.403 134.327C804.257 129.543 793.474 120.504 793.474 120.504C793.474 120.504 798.548 139.111 801.403 134.327Z" fill="#263238"/>
<path d="M773.915 40.9965C774.76 36.5298 778.328 33.411 781.844 34.0717C783.486 34.549 784.905 35.5962 785.844 37.0252C786.784 38.4543 787.184 40.1716 786.971 41.8688C787.701 41.5875 788.494 41.5127 789.263 41.6525C790.032 41.7924 790.748 42.1415 791.332 42.6616C792.069 40.8006 793.457 39.271 795.238 38.358C797.019 37.445 799.071 37.2109 801.012 37.6994C802.953 38.1879 804.65 39.3655 805.787 41.0129C806.924 42.6602 807.423 44.6647 807.191 46.6527L825.084 49.9565V50.9873L807.058 47.657C806.592 49.795 805.296 51.6603 803.454 52.8424C801.613 54.0246 799.377 54.4268 797.239 53.9607C795.101 53.4945 793.236 52.1981 792.054 50.3567C790.872 48.5153 790.47 46.2798 790.936 44.1418C790.936 44.1418 790.936 43.9303 790.936 43.7982C790.456 43.1942 789.77 42.7878 789.01 42.6562C788.25 42.5247 787.468 42.6771 786.813 43.0845C786.813 43.0845 786.813 43.296 786.813 43.4017C785.993 47.8949 782.399 50.9873 778.884 50.3265C775.368 49.6657 773.175 45.4897 773.915 40.9965ZM797.702 52.7845C799.111 53.0432 800.565 52.8784 801.88 52.3108C803.195 51.7433 804.312 50.7985 805.09 49.596C805.868 48.3935 806.272 46.9873 806.251 45.5552C806.23 44.123 805.785 42.7293 804.972 41.5502C804.159 40.3711 803.014 39.4596 801.683 38.931C800.352 38.4024 798.894 38.2804 797.493 38.5804C796.093 38.8804 794.812 39.589 793.815 40.6166C792.817 41.6441 792.146 42.9445 791.887 44.3532C791.549 46.2492 791.976 48.2021 793.077 49.7829C794.177 51.3638 795.859 52.4433 797.755 52.7845H797.702ZM779.016 49.3221C782.029 49.8772 785.095 47.1548 785.808 43.2167C786.522 39.2786 784.672 35.6311 781.659 35.0761C778.646 34.5211 775.606 37.2698 774.866 41.1815C774.126 45.0932 776.055 48.7671 779.069 49.3221H779.016Z" fill="#6E71CC"/>
<path d="M821.516 29.3434C815.648 33.8365 818.212 50.1441 825.507 55.1395C836.872 52.4171 839.039 15.9167 821.516 29.3434Z" fill="#263238"/>
<path d="M830.109 59.7162C828.475 62.4895 825.818 64.5109 822.709 65.3459C818.586 66.4031 816.603 62.7028 817.846 58.844C819.088 54.9852 822.418 50.6506 826.515 51.2849C827.411 51.4432 828.254 51.8226 828.966 52.3887C829.679 52.9548 830.239 53.6897 830.596 54.5269C830.953 55.3641 831.095 56.2771 831.01 57.1832C830.925 58.0893 830.616 58.9599 830.109 59.7162Z" fill="#FD967A"/>
<path opacity="0.2" d="M703.504 180.576C712.834 179.334 721.53 158.163 725.759 158.665C729.988 159.168 715.53 177.167 721.424 177.167C727.318 177.167 730.754 170.242 733.186 170.506C735.617 170.771 739.185 178.171 743.282 177.642C747.379 177.114 744.683 167.07 746.85 166.912C749.018 166.753 752.876 179.308 757.634 177.88C762.391 176.453 749.705 156.419 752.216 155.652C754.727 154.886 760.541 162.921 765.299 172.118C767.122 175.807 770.167 178.749 773.915 180.444L703.504 180.576Z" fill="white"/>
<path opacity="0.2" d="M740.771 152.882C743.969 152.433 746.216 161.049 743.018 162.159C739.82 163.269 737.573 153.332 740.771 152.882Z" fill="white"/>
<path d="M839.963 100.546C830.844 106.916 804.176 133.452 852.147 204.471C852.939 205.649 853.437 206.999 853.601 208.409L854.314 215.122C854.314 215.429 854.223 215.728 854.051 215.982C853.879 216.235 853.635 216.432 853.351 216.546C853.066 216.659 852.754 216.685 852.455 216.62C852.156 216.555 851.883 216.401 851.671 216.179C842.104 202.726 815.118 162.684 815.118 137.443C815.118 112.202 824.078 101.762 829.761 97.7975C830.94 96.9791 832.307 96.4725 833.735 96.3246C835.163 96.1767 836.605 96.3924 837.928 96.9517L839.778 97.7182C840.035 97.8458 840.254 98.0386 840.413 98.2774C840.572 98.5162 840.665 98.7926 840.684 99.079C840.703 99.3653 840.646 99.6515 840.52 99.909C840.393 100.166 840.201 100.386 839.963 100.546Z" fill="#6E71CC"/>
<path opacity="0.5" d="M839.963 100.546C830.844 106.916 804.176 133.452 852.147 204.471C852.939 205.649 853.437 206.999 853.601 208.409L854.314 215.122C854.314 215.429 854.223 215.728 854.051 215.982C853.879 216.235 853.635 216.432 853.351 216.546C853.066 216.659 852.754 216.685 852.455 216.62C852.156 216.555 851.883 216.401 851.671 216.179C842.104 202.726 815.118 162.684 815.118 137.443C815.118 112.202 824.078 101.762 829.761 97.7975C830.94 96.9791 832.307 96.4725 833.735 96.3246C835.163 96.1767 836.605 96.3924 837.928 96.9517L839.778 97.7182C840.035 97.8458 840.254 98.0386 840.413 98.2774C840.572 98.5162 840.665 98.7926 840.684 99.079C840.703 99.3653 840.646 99.6515 840.52 99.909C840.393 100.166 840.201 100.386 839.963 100.546Z" fill="black"/>
<path d="M811.419 181.161C815.736 180.286 819.977 179.076 824.105 177.54C825.556 177.025 826.933 176.323 828.202 175.452V175.029C829.565 166.038 830.21 156.952 830.132 147.859C830.132 143.207 830.132 138.529 829.894 133.851C829.656 129.172 829.444 124.388 829.154 119.975L849.532 117.966C850.113 123.252 850.298 128.115 850.51 133.19C850.721 138.264 850.51 143.233 850.51 148.308C850.217 158.658 848.853 168.951 846.439 179.02L846.201 179.972L846.069 180.474C846.069 180.897 845.831 181.293 845.699 181.716C845.17 183.205 844.402 184.597 843.426 185.839C842.012 187.66 840.262 189.194 838.272 190.359C835.496 191.97 832.507 193.18 829.392 193.953C824.202 195.337 818.891 196.222 813.533 196.596C803.495 197.325 793.413 197.166 783.403 196.121V185.998C792.838 184.571 802.406 183.117 811.419 181.161Z" fill="#FD967A"/>
<path d="M856.511 105.807C859.921 112.071 856.511 139.717 856.511 139.717L824.239 143.84C824.239 143.84 822.178 116.247 828.865 109.85C835.552 103.454 852.626 98.6703 856.511 105.807Z" fill="#6E71CC"/>
<g opacity="0.7">
<path d="M856.511 105.807C859.921 112.071 856.511 139.717 856.511 139.717L824.239 143.84C824.239 143.84 822.178 116.247 828.865 109.85C835.552 103.454 852.626 98.6703 856.511 105.807Z" fill="white"/>
</g>
<path d="M780.951 97.9814C769.656 113.603 763.32 132.26 762.767 151.53C762.767 151.663 762.714 151.79 762.62 151.885C762.525 151.979 762.398 152.032 762.264 152.032C762.131 152.032 762.004 151.979 761.909 151.885C761.815 151.79 761.762 151.663 761.762 151.53L759.384 140.402V139.768C759.384 137.125 759.384 120.844 772.599 97.6907C772.672 97.561 772.775 97.4505 772.899 97.3678C773.023 97.2852 773.164 97.2328 773.312 97.2149L780.131 96.422C780.324 96.3883 780.523 96.4167 780.699 96.5031C780.875 96.5896 781.019 96.7296 781.11 96.903C781.201 97.0764 781.234 97.2743 781.206 97.4681C781.177 97.6619 781.088 97.8416 780.951 97.9814Z" fill="#6E71CC"/>
<path opacity="0.5" d="M780.951 97.9814C769.656 113.603 763.32 132.26 762.767 151.53C762.767 151.663 762.714 151.79 762.62 151.885C762.525 151.979 762.398 152.032 762.264 152.032C762.131 152.032 762.004 151.979 761.909 151.885C761.815 151.79 761.762 151.663 761.762 151.53L759.384 140.402V139.768C759.384 137.125 759.384 120.844 772.599 97.6907C772.672 97.561 772.775 97.4505 772.899 97.3678C773.023 97.2852 773.164 97.2328 773.312 97.2149L780.131 96.422C780.324 96.3883 780.523 96.4167 780.699 96.5031C780.875 96.5896 781.019 96.7296 781.11 96.903C781.201 97.0764 781.234 97.2743 781.206 97.4681C781.177 97.6619 781.088 97.8416 780.951 97.9814Z" fill="black"/>
</g>
</g>
</g>
</g>
<defs>
<filter id="filter0_dd_3_3536" x="0" y="0" width="877" height="172" filterUnits="userSpaceOnUse" color-interpolation-filters="sRGB">
<feFlood flood-opacity="0" result="BackgroundImageFix"/>
<feColorMatrix in="SourceAlpha" type="matrix" values="0 0 0 0 0 0 0 0 0 0 0 0 0 0 0 0 0 0 127 0" result="hardAlpha"/>
<feOffset dy="1"/>
<feGaussianBlur stdDeviation="1"/>
<feColorMatrix type="matrix" values="0 0 0 0 0 0 0 0 0 0 0 0 0 0 0 0 0 0 0.06 0"/>
<feBlend mode="normal" in2="BackgroundImageFix" result="effect1_dropShadow_3_3536"/>
<feColorMatrix in="SourceAlpha" type="matrix" values="0 0 0 0 0 0 0 0 0 0 0 0 0 0 0 0 0 0 127 0" result="hardAlpha"/>
<feOffset dy="1"/>
<feGaussianBlur stdDeviation="1.5"/>
<feColorMatrix type="matrix" values="0 0 0 0 0 0 0 0 0 0 0 0 0 0 0 0 0 0 0.1 0"/>
<feBlend mode="normal" in2="effect1_dropShadow_3_3536" result="effect2_dropShadow_3_3536"/>
<feBlend mode="normal" in="SourceGraphic" in2="effect2_dropShadow_3_3536" result="shape"/>
</filter>
<filter id="filter1_dd_3_3536" x="22" y="95" width="311" height="62" filterUnits="userSpaceOnUse" color-interpolation-filters="sRGB">
<feFlood flood-opacity="0" result="BackgroundImageFix"/>
<feColorMatrix in="SourceAlpha" type="matrix" values="0 0 0 0 0 0 0 0 0 0 0 0 0 0 0 0 0 0 127 0" result="hardAlpha"/>
<feMorphology radius="1" operator="erode" in="SourceAlpha" result="effect1_dropShadow_3_3536"/>
<feOffset dy="2"/>
<feGaussianBlur stdDeviation="2"/>
<feColorMatrix type="matrix" values="0 0 0 0 0 0 0 0 0 0 0 0 0 0 0 0 0 0 0.06 0"/>
<feBlend mode="normal" in2="BackgroundImageFix" result="effect1_dropShadow_3_3536"/>
<feColorMatrix in="SourceAlpha" type="matrix" values="0 0 0 0 0 0 0 0 0 0 0 0 0 0 0 0 0 0 127 0" result="hardAlpha"/>
<feMorphology radius="1" operator="erode" in="SourceAlpha" result="effect2_dropShadow_3_3536"/>
<feOffset dy="4"/>
<feGaussianBlur stdDeviation="3"/>
<feColorMatrix type="matrix" values="0 0 0 0 0 0 0 0 0 0 0 0 0 0 0 0 0 0 0.1 0"/>
<feBlend mode="normal" in2="effect1_dropShadow_3_3536" result="effect2_dropShadow_3_3536"/>
<feBlend mode="normal" in="SourceGraphic" in2="effect2_dropShadow_3_3536" result="shape"/>
</filter>
<clipPath id="clip0_3_3536">
<rect width="1440" height="762" fill="white" transform="translate(-282 -164)"/>
</clipPath>
<clipPath id="clip1_3_3536">
<rect x="3" y="2" width="871" height="166" rx="12" fill="white"/>
</clipPath>
<clipPath id="clip2_3_3536">
<rect width="198" height="198" rx="99" transform="matrix(-1 0 0 1 910 -18)" fill="white"/>
</clipPath>
</defs>
</svg>
